<mxfile host="Electron" agent="Mozilla/5.0 (X11; Linux x86_64) AppleWebKit/537.36 (KHTML, like Gecko) draw.io/26.2.2 Chrome/134.0.6998.178 Electron/35.1.2 Safari/537.36" version="26.2.2">
  <diagram name="Page-1" id="itpsgGBWRPno7lSDXICu">
    <mxGraphModel dx="1428" dy="875" grid="1" gridSize="10" guides="1" tooltips="1" connect="1" arrows="1" fold="1" page="1" pageScale="1" pageWidth="850" pageHeight="1100" math="0" shadow="0">
      <root>
        <mxCell id="0" />
        <mxCell id="1" parent="0" />
        <mxCell id="IS7KMr-Yb7G154o8vXIG-1" value="BaseEntity" style="swimlane;fontStyle=1;align=center;verticalAlign=top;childLayout=stackLayout;horizontal=1;startSize=35.55555555555556;horizontalStack=0;resizeParent=1;resizeParentMax=0;resizeLast=0;collapsible=0;marginBottom=0;" parent="1" vertex="1">
          <mxGeometry y="820" width="190" height="175.55555555555554" as="geometry" />
        </mxCell>
        <mxCell id="IS7KMr-Yb7G154o8vXIG-2" value="-id: string" style="text;strokeColor=none;fillColor=none;align=left;verticalAlign=top;spacingLeft=4;spacingRight=4;overflow=hidden;rotatable=0;points=[[0,0.5],[1,0.5]];portConstraint=eastwest;" parent="IS7KMr-Yb7G154o8vXIG-1" vertex="1">
          <mxGeometry y="35.55555555555556" width="190" height="40" as="geometry" />
        </mxCell>
        <mxCell id="IS7KMr-Yb7G154o8vXIG-3" value="-createdAt: Date" style="text;strokeColor=none;fillColor=none;align=left;verticalAlign=top;spacingLeft=4;spacingRight=4;overflow=hidden;rotatable=0;points=[[0,0.5],[1,0.5]];portConstraint=eastwest;" parent="IS7KMr-Yb7G154o8vXIG-1" vertex="1">
          <mxGeometry y="75.55555555555556" width="190" height="40" as="geometry" />
        </mxCell>
        <mxCell id="IS7KMr-Yb7G154o8vXIG-4" value="-updatedAt: Date" style="text;strokeColor=none;fillColor=none;align=left;verticalAlign=top;spacingLeft=4;spacingRight=4;overflow=hidden;rotatable=0;points=[[0,0.5],[1,0.5]];portConstraint=eastwest;" parent="IS7KMr-Yb7G154o8vXIG-1" vertex="1">
          <mxGeometry y="115.55555555555556" width="190" height="40" as="geometry" />
        </mxCell>
        <mxCell id="IS7KMr-Yb7G154o8vXIG-5" style="line;strokeWidth=1;fillColor=none;align=left;verticalAlign=middle;spacingTop=-1;spacingLeft=3;spacingRight=3;rotatable=0;labelPosition=right;points=[];portConstraint=eastwest;strokeColor=inherit;" parent="IS7KMr-Yb7G154o8vXIG-1" vertex="1">
          <mxGeometry y="155.55555555555554" width="190" height="20" as="geometry" />
        </mxCell>
        <mxCell id="IS7KMr-Yb7G154o8vXIG-6" value="&lt;&lt;enumeration&gt;&gt;&#xa;UserRole" style="swimlane;fontStyle=1;align=center;verticalAlign=top;childLayout=stackLayout;horizontal=1;startSize=55.199999999999996;horizontalStack=0;resizeParent=1;resizeParentMax=0;resizeLast=0;collapsible=0;marginBottom=0;" parent="1" vertex="1">
          <mxGeometry x="2830" y="1770" width="200" height="195.2" as="geometry" />
        </mxCell>
        <mxCell id="IS7KMr-Yb7G154o8vXIG-7" value="CUSTOMER" style="text;strokeColor=none;fillColor=none;align=left;verticalAlign=top;spacingLeft=4;spacingRight=4;overflow=hidden;rotatable=0;points=[[0,0.5],[1,0.5]];portConstraint=eastwest;" parent="IS7KMr-Yb7G154o8vXIG-6" vertex="1">
          <mxGeometry y="55.199999999999996" width="200" height="40" as="geometry" />
        </mxCell>
        <mxCell id="IS7KMr-Yb7G154o8vXIG-8" value="HOTEL_ADMIN" style="text;strokeColor=none;fillColor=none;align=left;verticalAlign=top;spacingLeft=4;spacingRight=4;overflow=hidden;rotatable=0;points=[[0,0.5],[1,0.5]];portConstraint=eastwest;" parent="IS7KMr-Yb7G154o8vXIG-6" vertex="1">
          <mxGeometry y="95.19999999999999" width="200" height="40" as="geometry" />
        </mxCell>
        <mxCell id="IS7KMr-Yb7G154o8vXIG-9" value="SYSTEM_ADMIN" style="text;strokeColor=none;fillColor=none;align=left;verticalAlign=top;spacingLeft=4;spacingRight=4;overflow=hidden;rotatable=0;points=[[0,0.5],[1,0.5]];portConstraint=eastwest;" parent="IS7KMr-Yb7G154o8vXIG-6" vertex="1">
          <mxGeometry y="135.2" width="200" height="40" as="geometry" />
        </mxCell>
        <mxCell id="IS7KMr-Yb7G154o8vXIG-10" style="line;strokeWidth=1;fillColor=none;align=left;verticalAlign=middle;spacingTop=-1;spacingLeft=3;spacingRight=3;rotatable=0;labelPosition=right;points=[];portConstraint=eastwest;strokeColor=inherit;" parent="IS7KMr-Yb7G154o8vXIG-6" vertex="1">
          <mxGeometry y="175.2" width="200" height="20" as="geometry" />
        </mxCell>
        <mxCell id="IS7KMr-Yb7G154o8vXIG-11" value="&lt;&lt;enumeration&gt;&gt;&#xa;RoomType" style="swimlane;fontStyle=1;align=center;verticalAlign=top;childLayout=stackLayout;horizontal=1;startSize=49.71428571428572;horizontalStack=0;resizeParent=1;resizeParentMax=0;resizeLast=0;collapsible=0;marginBottom=0;" parent="1" vertex="1">
          <mxGeometry x="3170" y="1750" width="140" height="219.71428571428572" as="geometry" />
        </mxCell>
        <mxCell id="IS7KMr-Yb7G154o8vXIG-12" value="SINGLE" style="text;strokeColor=none;fillColor=none;align=left;verticalAlign=top;spacingLeft=4;spacingRight=4;overflow=hidden;rotatable=0;points=[[0,0.5],[1,0.5]];portConstraint=eastwest;" parent="IS7KMr-Yb7G154o8vXIG-11" vertex="1">
          <mxGeometry y="49.71428571428572" width="140" height="30" as="geometry" />
        </mxCell>
        <mxCell id="IS7KMr-Yb7G154o8vXIG-13" value="DOUBLE" style="text;strokeColor=none;fillColor=none;align=left;verticalAlign=top;spacingLeft=4;spacingRight=4;overflow=hidden;rotatable=0;points=[[0,0.5],[1,0.5]];portConstraint=eastwest;" parent="IS7KMr-Yb7G154o8vXIG-11" vertex="1">
          <mxGeometry y="79.71428571428572" width="140" height="30" as="geometry" />
        </mxCell>
        <mxCell id="IS7KMr-Yb7G154o8vXIG-14" value="SUITE" style="text;strokeColor=none;fillColor=none;align=left;verticalAlign=top;spacingLeft=4;spacingRight=4;overflow=hidden;rotatable=0;points=[[0,0.5],[1,0.5]];portConstraint=eastwest;" parent="IS7KMr-Yb7G154o8vXIG-11" vertex="1">
          <mxGeometry y="109.71428571428572" width="140" height="30" as="geometry" />
        </mxCell>
        <mxCell id="IS7KMr-Yb7G154o8vXIG-15" value="DELUXE" style="text;strokeColor=none;fillColor=none;align=left;verticalAlign=top;spacingLeft=4;spacingRight=4;overflow=hidden;rotatable=0;points=[[0,0.5],[1,0.5]];portConstraint=eastwest;" parent="IS7KMr-Yb7G154o8vXIG-11" vertex="1">
          <mxGeometry y="139.71428571428572" width="140" height="30" as="geometry" />
        </mxCell>
        <mxCell id="IS7KMr-Yb7G154o8vXIG-16" value="FAMILY" style="text;strokeColor=none;fillColor=none;align=left;verticalAlign=top;spacingLeft=4;spacingRight=4;overflow=hidden;rotatable=0;points=[[0,0.5],[1,0.5]];portConstraint=eastwest;" parent="IS7KMr-Yb7G154o8vXIG-11" vertex="1">
          <mxGeometry y="169.71428571428572" width="140" height="30" as="geometry" />
        </mxCell>
        <mxCell id="IS7KMr-Yb7G154o8vXIG-17" style="line;strokeWidth=1;fillColor=none;align=left;verticalAlign=middle;spacingTop=-1;spacingLeft=3;spacingRight=3;rotatable=0;labelPosition=right;points=[];portConstraint=eastwest;strokeColor=inherit;" parent="IS7KMr-Yb7G154o8vXIG-11" vertex="1">
          <mxGeometry y="199.71428571428572" width="140" height="20" as="geometry" />
        </mxCell>
        <mxCell id="IS7KMr-Yb7G154o8vXIG-18" value="&lt;&lt;enumeration&gt;&gt;&#xa;ReservationStatus" style="swimlane;fontStyle=1;align=center;verticalAlign=top;childLayout=stackLayout;horizontal=1;startSize=49.71428571428572;horizontalStack=0;resizeParent=1;resizeParentMax=0;resizeLast=0;collapsible=0;marginBottom=0;" parent="1" vertex="1">
          <mxGeometry x="3440" y="1750" width="190" height="219.71428571428572" as="geometry" />
        </mxCell>
        <mxCell id="IS7KMr-Yb7G154o8vXIG-19" value="PENDING" style="text;strokeColor=none;fillColor=none;align=left;verticalAlign=top;spacingLeft=4;spacingRight=4;overflow=hidden;rotatable=0;points=[[0,0.5],[1,0.5]];portConstraint=eastwest;" parent="IS7KMr-Yb7G154o8vXIG-18" vertex="1">
          <mxGeometry y="49.71428571428572" width="190" height="30" as="geometry" />
        </mxCell>
        <mxCell id="IS7KMr-Yb7G154o8vXIG-20" value="CONFIRMED" style="text;strokeColor=none;fillColor=none;align=left;verticalAlign=top;spacingLeft=4;spacingRight=4;overflow=hidden;rotatable=0;points=[[0,0.5],[1,0.5]];portConstraint=eastwest;" parent="IS7KMr-Yb7G154o8vXIG-18" vertex="1">
          <mxGeometry y="79.71428571428572" width="190" height="30" as="geometry" />
        </mxCell>
        <mxCell id="IS7KMr-Yb7G154o8vXIG-21" value="REJECTED" style="text;strokeColor=none;fillColor=none;align=left;verticalAlign=top;spacingLeft=4;spacingRight=4;overflow=hidden;rotatable=0;points=[[0,0.5],[1,0.5]];portConstraint=eastwest;" parent="IS7KMr-Yb7G154o8vXIG-18" vertex="1">
          <mxGeometry y="109.71428571428572" width="190" height="30" as="geometry" />
        </mxCell>
        <mxCell id="IS7KMr-Yb7G154o8vXIG-22" value="CANCELED" style="text;strokeColor=none;fillColor=none;align=left;verticalAlign=top;spacingLeft=4;spacingRight=4;overflow=hidden;rotatable=0;points=[[0,0.5],[1,0.5]];portConstraint=eastwest;" parent="IS7KMr-Yb7G154o8vXIG-18" vertex="1">
          <mxGeometry y="139.71428571428572" width="190" height="30" as="geometry" />
        </mxCell>
        <mxCell id="IS7KMr-Yb7G154o8vXIG-23" value="COMPLETED" style="text;strokeColor=none;fillColor=none;align=left;verticalAlign=top;spacingLeft=4;spacingRight=4;overflow=hidden;rotatable=0;points=[[0,0.5],[1,0.5]];portConstraint=eastwest;" parent="IS7KMr-Yb7G154o8vXIG-18" vertex="1">
          <mxGeometry y="169.71428571428572" width="190" height="30" as="geometry" />
        </mxCell>
        <mxCell id="IS7KMr-Yb7G154o8vXIG-24" style="line;strokeWidth=1;fillColor=none;align=left;verticalAlign=middle;spacingTop=-1;spacingLeft=3;spacingRight=3;rotatable=0;labelPosition=right;points=[];portConstraint=eastwest;strokeColor=inherit;" parent="IS7KMr-Yb7G154o8vXIG-18" vertex="1">
          <mxGeometry y="199.71428571428572" width="190" height="20" as="geometry" />
        </mxCell>
        <mxCell id="IS7KMr-Yb7G154o8vXIG-25" value="&lt;&lt;enumeration&gt;&gt;&#xa;NotificationType" style="swimlane;fontStyle=1;align=center;verticalAlign=top;childLayout=stackLayout;horizontal=1;startSize=49.71428571428572;horizontalStack=0;resizeParent=1;resizeParentMax=0;resizeLast=0;collapsible=0;marginBottom=0;" parent="1" vertex="1">
          <mxGeometry x="3720" y="1750" width="300" height="219.71428571428572" as="geometry" />
        </mxCell>
        <mxCell id="IS7KMr-Yb7G154o8vXIG-26" value="RESERVATION_CREATED" style="text;strokeColor=none;fillColor=none;align=left;verticalAlign=top;spacingLeft=4;spacingRight=4;overflow=hidden;rotatable=0;points=[[0,0.5],[1,0.5]];portConstraint=eastwest;" parent="IS7KMr-Yb7G154o8vXIG-25" vertex="1">
          <mxGeometry y="49.71428571428572" width="300" height="30" as="geometry" />
        </mxCell>
        <mxCell id="IS7KMr-Yb7G154o8vXIG-27" value="RESERVATION_CONFIRMED" style="text;strokeColor=none;fillColor=none;align=left;verticalAlign=top;spacingLeft=4;spacingRight=4;overflow=hidden;rotatable=0;points=[[0,0.5],[1,0.5]];portConstraint=eastwest;" parent="IS7KMr-Yb7G154o8vXIG-25" vertex="1">
          <mxGeometry y="79.71428571428572" width="300" height="30" as="geometry" />
        </mxCell>
        <mxCell id="IS7KMr-Yb7G154o8vXIG-28" value="RESERVATION_REJECTED" style="text;strokeColor=none;fillColor=none;align=left;verticalAlign=top;spacingLeft=4;spacingRight=4;overflow=hidden;rotatable=0;points=[[0,0.5],[1,0.5]];portConstraint=eastwest;" parent="IS7KMr-Yb7G154o8vXIG-25" vertex="1">
          <mxGeometry y="109.71428571428572" width="300" height="30" as="geometry" />
        </mxCell>
        <mxCell id="IS7KMr-Yb7G154o8vXIG-29" value="NEW_REVIEW" style="text;strokeColor=none;fillColor=none;align=left;verticalAlign=top;spacingLeft=4;spacingRight=4;overflow=hidden;rotatable=0;points=[[0,0.5],[1,0.5]];portConstraint=eastwest;" parent="IS7KMr-Yb7G154o8vXIG-25" vertex="1">
          <mxGeometry y="139.71428571428572" width="300" height="30" as="geometry" />
        </mxCell>
        <mxCell id="IS7KMr-Yb7G154o8vXIG-30" value="PAYMENT_PROCESSED" style="text;strokeColor=none;fillColor=none;align=left;verticalAlign=top;spacingLeft=4;spacingRight=4;overflow=hidden;rotatable=0;points=[[0,0.5],[1,0.5]];portConstraint=eastwest;" parent="IS7KMr-Yb7G154o8vXIG-25" vertex="1">
          <mxGeometry y="169.71428571428572" width="300" height="30" as="geometry" />
        </mxCell>
        <mxCell id="IS7KMr-Yb7G154o8vXIG-31" style="line;strokeWidth=1;fillColor=none;align=left;verticalAlign=middle;spacingTop=-1;spacingLeft=3;spacingRight=3;rotatable=0;labelPosition=right;points=[];portConstraint=eastwest;strokeColor=inherit;" parent="IS7KMr-Yb7G154o8vXIG-25" vertex="1">
          <mxGeometry y="199.71428571428572" width="300" height="20" as="geometry" />
        </mxCell>
        <mxCell id="IS7KMr-Yb7G154o8vXIG-32" value="&lt;&lt;enumeration&gt;&gt;&#xa;ReportType" style="swimlane;fontStyle=1;align=center;verticalAlign=top;childLayout=stackLayout;horizontal=1;startSize=55.199999999999996;horizontalStack=0;resizeParent=1;resizeParentMax=0;resizeLast=0;collapsible=0;marginBottom=0;" parent="1" vertex="1">
          <mxGeometry x="2830" y="2080" width="270" height="195.2" as="geometry" />
        </mxCell>
        <mxCell id="IS7KMr-Yb7G154o8vXIG-33" value="OCCUPANCY" style="text;strokeColor=none;fillColor=none;align=left;verticalAlign=top;spacingLeft=4;spacingRight=4;overflow=hidden;rotatable=0;points=[[0,0.5],[1,0.5]];portConstraint=eastwest;" parent="IS7KMr-Yb7G154o8vXIG-32" vertex="1">
          <mxGeometry y="55.199999999999996" width="270" height="40" as="geometry" />
        </mxCell>
        <mxCell id="IS7KMr-Yb7G154o8vXIG-34" value="REVENUE" style="text;strokeColor=none;fillColor=none;align=left;verticalAlign=top;spacingLeft=4;spacingRight=4;overflow=hidden;rotatable=0;points=[[0,0.5],[1,0.5]];portConstraint=eastwest;" parent="IS7KMr-Yb7G154o8vXIG-32" vertex="1">
          <mxGeometry y="95.19999999999999" width="270" height="40" as="geometry" />
        </mxCell>
        <mxCell id="IS7KMr-Yb7G154o8vXIG-35" value="RESERVATION_ACTIVITY" style="text;strokeColor=none;fillColor=none;align=left;verticalAlign=top;spacingLeft=4;spacingRight=4;overflow=hidden;rotatable=0;points=[[0,0.5],[1,0.5]];portConstraint=eastwest;" parent="IS7KMr-Yb7G154o8vXIG-32" vertex="1">
          <mxGeometry y="135.2" width="270" height="40" as="geometry" />
        </mxCell>
        <mxCell id="IS7KMr-Yb7G154o8vXIG-36" style="line;strokeWidth=1;fillColor=none;align=left;verticalAlign=middle;spacingTop=-1;spacingLeft=3;spacingRight=3;rotatable=0;labelPosition=right;points=[];portConstraint=eastwest;strokeColor=inherit;" parent="IS7KMr-Yb7G154o8vXIG-32" vertex="1">
          <mxGeometry y="175.2" width="270" height="20" as="geometry" />
        </mxCell>
        <mxCell id="IS7KMr-Yb7G154o8vXIG-37" value="Address" style="swimlane;fontStyle=1;align=center;verticalAlign=top;childLayout=stackLayout;horizontal=1;startSize=32;horizontalStack=0;resizeParent=1;resizeParentMax=0;resizeLast=0;collapsible=0;marginBottom=0;" parent="1" vertex="1">
          <mxGeometry x="3200" y="2060" width="170" height="202" as="geometry" />
        </mxCell>
        <mxCell id="IS7KMr-Yb7G154o8vXIG-38" value="-street: string" style="text;strokeColor=none;fillColor=none;align=left;verticalAlign=top;spacingLeft=4;spacingRight=4;overflow=hidden;rotatable=0;points=[[0,0.5],[1,0.5]];portConstraint=eastwest;" parent="IS7KMr-Yb7G154o8vXIG-37" vertex="1">
          <mxGeometry y="32" width="170" height="30" as="geometry" />
        </mxCell>
        <mxCell id="IS7KMr-Yb7G154o8vXIG-39" value="-city: string" style="text;strokeColor=none;fillColor=none;align=left;verticalAlign=top;spacingLeft=4;spacingRight=4;overflow=hidden;rotatable=0;points=[[0,0.5],[1,0.5]];portConstraint=eastwest;" parent="IS7KMr-Yb7G154o8vXIG-37" vertex="1">
          <mxGeometry y="62" width="170" height="30" as="geometry" />
        </mxCell>
        <mxCell id="IS7KMr-Yb7G154o8vXIG-40" value="-state: string" style="text;strokeColor=none;fillColor=none;align=left;verticalAlign=top;spacingLeft=4;spacingRight=4;overflow=hidden;rotatable=0;points=[[0,0.5],[1,0.5]];portConstraint=eastwest;" parent="IS7KMr-Yb7G154o8vXIG-37" vertex="1">
          <mxGeometry y="92" width="170" height="30" as="geometry" />
        </mxCell>
        <mxCell id="IS7KMr-Yb7G154o8vXIG-41" value="-country: string" style="text;strokeColor=none;fillColor=none;align=left;verticalAlign=top;spacingLeft=4;spacingRight=4;overflow=hidden;rotatable=0;points=[[0,0.5],[1,0.5]];portConstraint=eastwest;" parent="IS7KMr-Yb7G154o8vXIG-37" vertex="1">
          <mxGeometry y="122" width="170" height="30" as="geometry" />
        </mxCell>
        <mxCell id="IS7KMr-Yb7G154o8vXIG-42" value="-zipCode: string" style="text;strokeColor=none;fillColor=none;align=left;verticalAlign=top;spacingLeft=4;spacingRight=4;overflow=hidden;rotatable=0;points=[[0,0.5],[1,0.5]];portConstraint=eastwest;" parent="IS7KMr-Yb7G154o8vXIG-37" vertex="1">
          <mxGeometry y="152" width="170" height="30" as="geometry" />
        </mxCell>
        <mxCell id="IS7KMr-Yb7G154o8vXIG-43" style="line;strokeWidth=1;fillColor=none;align=left;verticalAlign=middle;spacingTop=-1;spacingLeft=3;spacingRight=3;rotatable=0;labelPosition=right;points=[];portConstraint=eastwest;strokeColor=inherit;" parent="IS7KMr-Yb7G154o8vXIG-37" vertex="1">
          <mxGeometry y="182" width="170" height="20" as="geometry" />
        </mxCell>
        <mxCell id="IS7KMr-Yb7G154o8vXIG-44" value="Money" style="swimlane;fontStyle=1;align=center;verticalAlign=top;childLayout=stackLayout;horizontal=1;startSize=40;horizontalStack=0;resizeParent=1;resizeParentMax=0;resizeLast=0;collapsible=0;marginBottom=0;" parent="1" vertex="1">
          <mxGeometry x="3470" y="2080" width="170" height="170" as="geometry" />
        </mxCell>
        <mxCell id="IS7KMr-Yb7G154o8vXIG-45" value="-amount: number" style="text;strokeColor=none;fillColor=none;align=left;verticalAlign=top;spacingLeft=4;spacingRight=4;overflow=hidden;rotatable=0;points=[[0,0.5],[1,0.5]];portConstraint=eastwest;" parent="IS7KMr-Yb7G154o8vXIG-44" vertex="1">
          <mxGeometry y="40" width="170" height="40" as="geometry" />
        </mxCell>
        <mxCell id="IS7KMr-Yb7G154o8vXIG-46" value="-currency: string" style="text;strokeColor=none;fillColor=none;align=left;verticalAlign=top;spacingLeft=4;spacingRight=4;overflow=hidden;rotatable=0;points=[[0,0.5],[1,0.5]];portConstraint=eastwest;" parent="IS7KMr-Yb7G154o8vXIG-44" vertex="1">
          <mxGeometry y="80" width="170" height="40" as="geometry" />
        </mxCell>
        <mxCell id="IS7KMr-Yb7G154o8vXIG-47" style="line;strokeWidth=1;fillColor=none;align=left;verticalAlign=middle;spacingTop=-1;spacingLeft=3;spacingRight=3;rotatable=0;labelPosition=right;points=[];portConstraint=eastwest;strokeColor=inherit;" parent="IS7KMr-Yb7G154o8vXIG-44" vertex="1">
          <mxGeometry y="120" width="170" height="10" as="geometry" />
        </mxCell>
        <mxCell id="IS7KMr-Yb7G154o8vXIG-48" value="+format() : string" style="text;strokeColor=none;fillColor=none;align=left;verticalAlign=top;spacingLeft=4;spacingRight=4;overflow=hidden;rotatable=0;points=[[0,0.5],[1,0.5]];portConstraint=eastwest;" parent="IS7KMr-Yb7G154o8vXIG-44" vertex="1">
          <mxGeometry y="130" width="170" height="40" as="geometry" />
        </mxCell>
        <mxCell id="IS7KMr-Yb7G154o8vXIG-49" value="User" style="swimlane;fontStyle=1;align=center;verticalAlign=top;childLayout=stackLayout;horizontal=1;startSize=31.11111111111111;horizontalStack=0;resizeParent=1;resizeParentMax=0;resizeLast=0;collapsible=0;marginBottom=0;" parent="1" vertex="1">
          <mxGeometry x="390" y="470" width="300" height="281.1111111111111" as="geometry" />
        </mxCell>
        <mxCell id="IS7KMr-Yb7G154o8vXIG-50" value="-email: string" style="text;strokeColor=none;fillColor=none;align=left;verticalAlign=top;spacingLeft=4;spacingRight=4;overflow=hidden;rotatable=0;points=[[0,0.5],[1,0.5]];portConstraint=eastwest;" parent="IS7KMr-Yb7G154o8vXIG-49" vertex="1">
          <mxGeometry y="31.11111111111111" width="300" height="30" as="geometry" />
        </mxCell>
        <mxCell id="IS7KMr-Yb7G154o8vXIG-51" value="-password: string" style="text;strokeColor=none;fillColor=none;align=left;verticalAlign=top;spacingLeft=4;spacingRight=4;overflow=hidden;rotatable=0;points=[[0,0.5],[1,0.5]];portConstraint=eastwest;" parent="IS7KMr-Yb7G154o8vXIG-49" vertex="1">
          <mxGeometry y="61.111111111111114" width="300" height="30" as="geometry" />
        </mxCell>
        <mxCell id="IS7KMr-Yb7G154o8vXIG-52" value="-name: string" style="text;strokeColor=none;fillColor=none;align=left;verticalAlign=top;spacingLeft=4;spacingRight=4;overflow=hidden;rotatable=0;points=[[0,0.5],[1,0.5]];portConstraint=eastwest;" parent="IS7KMr-Yb7G154o8vXIG-49" vertex="1">
          <mxGeometry y="91.11111111111111" width="300" height="30" as="geometry" />
        </mxCell>
        <mxCell id="IS7KMr-Yb7G154o8vXIG-53" value="-phoneNumber: string" style="text;strokeColor=none;fillColor=none;align=left;verticalAlign=top;spacingLeft=4;spacingRight=4;overflow=hidden;rotatable=0;points=[[0,0.5],[1,0.5]];portConstraint=eastwest;" parent="IS7KMr-Yb7G154o8vXIG-49" vertex="1">
          <mxGeometry y="121.11111111111111" width="300" height="30" as="geometry" />
        </mxCell>
        <mxCell id="IS7KMr-Yb7G154o8vXIG-54" value="-role: UserRole" style="text;strokeColor=none;fillColor=none;align=left;verticalAlign=top;spacingLeft=4;spacingRight=4;overflow=hidden;rotatable=0;points=[[0,0.5],[1,0.5]];portConstraint=eastwest;" parent="IS7KMr-Yb7G154o8vXIG-49" vertex="1">
          <mxGeometry y="151.11111111111111" width="300" height="30" as="geometry" />
        </mxCell>
        <mxCell id="IS7KMr-Yb7G154o8vXIG-55" style="line;strokeWidth=1;fillColor=none;align=left;verticalAlign=middle;spacingTop=-1;spacingLeft=3;spacingRight=3;rotatable=0;labelPosition=right;points=[];portConstraint=eastwest;strokeColor=inherit;" parent="IS7KMr-Yb7G154o8vXIG-49" vertex="1">
          <mxGeometry y="181.11111111111111" width="300" height="10" as="geometry" />
        </mxCell>
        <mxCell id="IS7KMr-Yb7G154o8vXIG-56" value="+authenticate() : Promise&lt;boolean&gt;" style="text;strokeColor=none;fillColor=none;align=left;verticalAlign=top;spacingLeft=4;spacingRight=4;overflow=hidden;rotatable=0;points=[[0,0.5],[1,0.5]];portConstraint=eastwest;" parent="IS7KMr-Yb7G154o8vXIG-49" vertex="1">
          <mxGeometry y="191.11111111111111" width="300" height="30" as="geometry" />
        </mxCell>
        <mxCell id="IS7KMr-Yb7G154o8vXIG-57" value="+resetPassword() : Promise&lt;void&gt;" style="text;strokeColor=none;fillColor=none;align=left;verticalAlign=top;spacingLeft=4;spacingRight=4;overflow=hidden;rotatable=0;points=[[0,0.5],[1,0.5]];portConstraint=eastwest;" parent="IS7KMr-Yb7G154o8vXIG-49" vertex="1">
          <mxGeometry y="221.11111111111111" width="300" height="30" as="geometry" />
        </mxCell>
        <mxCell id="IS7KMr-Yb7G154o8vXIG-58" value="+updateProfile() : Promise&lt;User&gt;" style="text;strokeColor=none;fillColor=none;align=left;verticalAlign=top;spacingLeft=4;spacingRight=4;overflow=hidden;rotatable=0;points=[[0,0.5],[1,0.5]];portConstraint=eastwest;" parent="IS7KMr-Yb7G154o8vXIG-49" vertex="1">
          <mxGeometry y="251.11111111111111" width="300" height="30" as="geometry" />
        </mxCell>
        <mxCell id="IS7KMr-Yb7G154o8vXIG-59" value="Customer" style="swimlane;fontStyle=1;align=center;verticalAlign=top;childLayout=stackLayout;horizontal=1;startSize=33.142857142857146;horizontalStack=0;resizeParent=1;resizeParentMax=0;resizeLast=0;collapsible=0;marginBottom=0;" parent="1" vertex="1">
          <mxGeometry x="880" y="100" width="500" height="223.14285714285714" as="geometry" />
        </mxCell>
        <mxCell id="IS7KMr-Yb7G154o8vXIG-60" value="-favorites: Hotel[]" style="text;strokeColor=none;fillColor=none;align=left;verticalAlign=top;spacingLeft=4;spacingRight=4;overflow=hidden;rotatable=0;points=[[0,0.5],[1,0.5]];portConstraint=eastwest;" parent="IS7KMr-Yb7G154o8vXIG-59" vertex="1">
          <mxGeometry y="33.142857142857146" width="500" height="30" as="geometry" />
        </mxCell>
        <mxCell id="IS7KMr-Yb7G154o8vXIG-61" style="line;strokeWidth=1;fillColor=none;align=left;verticalAlign=middle;spacingTop=-1;spacingLeft=3;spacingRight=3;rotatable=0;labelPosition=right;points=[];portConstraint=eastwest;strokeColor=inherit;" parent="IS7KMr-Yb7G154o8vXIG-59" vertex="1">
          <mxGeometry y="63.142857142857146" width="500" height="10" as="geometry" />
        </mxCell>
        <mxCell id="IS7KMr-Yb7G154o8vXIG-62" value="+searchHotels(filters) : Promise&lt;Hotel[]&gt;" style="text;strokeColor=none;fillColor=none;align=left;verticalAlign=top;spacingLeft=4;spacingRight=4;overflow=hidden;rotatable=0;points=[[0,0.5],[1,0.5]];portConstraint=eastwest;" parent="IS7KMr-Yb7G154o8vXIG-59" vertex="1">
          <mxGeometry y="73.14285714285714" width="500" height="30" as="geometry" />
        </mxCell>
        <mxCell id="IS7KMr-Yb7G154o8vXIG-63" value="+makeReservation(reservationData) : Promise&lt;Reservation&gt;" style="text;strokeColor=none;fillColor=none;align=left;verticalAlign=top;spacingLeft=4;spacingRight=4;overflow=hidden;rotatable=0;points=[[0,0.5],[1,0.5]];portConstraint=eastwest;" parent="IS7KMr-Yb7G154o8vXIG-59" vertex="1">
          <mxGeometry y="103.14285714285714" width="500" height="30" as="geometry" />
        </mxCell>
        <mxCell id="IS7KMr-Yb7G154o8vXIG-64" value="+cancelReservation(id) : Promise&lt;boolean&gt;" style="text;strokeColor=none;fillColor=none;align=left;verticalAlign=top;spacingLeft=4;spacingRight=4;overflow=hidden;rotatable=0;points=[[0,0.5],[1,0.5]];portConstraint=eastwest;" parent="IS7KMr-Yb7G154o8vXIG-59" vertex="1">
          <mxGeometry y="133.14285714285714" width="500" height="30" as="geometry" />
        </mxCell>
        <mxCell id="IS7KMr-Yb7G154o8vXIG-65" value="+writeReview(reviewData) : Promise&lt;Review&gt;" style="text;strokeColor=none;fillColor=none;align=left;verticalAlign=top;spacingLeft=4;spacingRight=4;overflow=hidden;rotatable=0;points=[[0,0.5],[1,0.5]];portConstraint=eastwest;" parent="IS7KMr-Yb7G154o8vXIG-59" vertex="1">
          <mxGeometry y="163.14285714285714" width="500" height="30" as="geometry" />
        </mxCell>
        <mxCell id="IS7KMr-Yb7G154o8vXIG-66" value="+getReservationHistory() : Promise&lt;Reservation[]&gt;" style="text;strokeColor=none;fillColor=none;align=left;verticalAlign=top;spacingLeft=4;spacingRight=4;overflow=hidden;rotatable=0;points=[[0,0.5],[1,0.5]];portConstraint=eastwest;" parent="IS7KMr-Yb7G154o8vXIG-59" vertex="1">
          <mxGeometry y="193.14285714285714" width="500" height="30" as="geometry" />
        </mxCell>
        <mxCell id="IS7KMr-Yb7G154o8vXIG-67" value="HotelAdmin" style="swimlane;fontStyle=1;align=center;verticalAlign=top;childLayout=stackLayout;horizontal=1;startSize=34.666666666666664;horizontalStack=0;resizeParent=1;resizeParentMax=0;resizeLast=0;collapsible=0;marginBottom=0;" parent="1" vertex="1">
          <mxGeometry x="890" y="540" width="480" height="244.66666666666666" as="geometry" />
        </mxCell>
        <mxCell id="IS7KMr-Yb7G154o8vXIG-68" value="-managedHotels: Hotel[]" style="text;strokeColor=none;fillColor=none;align=left;verticalAlign=top;spacingLeft=4;spacingRight=4;overflow=hidden;rotatable=0;points=[[0,0.5],[1,0.5]];portConstraint=eastwest;" parent="IS7KMr-Yb7G154o8vXIG-67" vertex="1">
          <mxGeometry y="34.666666666666664" width="480" height="40" as="geometry" />
        </mxCell>
        <mxCell id="IS7KMr-Yb7G154o8vXIG-69" style="line;strokeWidth=1;fillColor=none;align=left;verticalAlign=middle;spacingTop=-1;spacingLeft=3;spacingRight=3;rotatable=0;labelPosition=right;points=[];portConstraint=eastwest;strokeColor=inherit;" parent="IS7KMr-Yb7G154o8vXIG-67" vertex="1">
          <mxGeometry y="74.66666666666666" width="480" height="10" as="geometry" />
        </mxCell>
        <mxCell id="IS7KMr-Yb7G154o8vXIG-70" value="+manageHotelInfo(hotelData) : Promise&lt;Hotel&gt;" style="text;strokeColor=none;fillColor=none;align=left;verticalAlign=top;spacingLeft=4;spacingRight=4;overflow=hidden;rotatable=0;points=[[0,0.5],[1,0.5]];portConstraint=eastwest;" parent="IS7KMr-Yb7G154o8vXIG-67" vertex="1">
          <mxGeometry y="84.66666666666666" width="480" height="40" as="geometry" />
        </mxCell>
        <mxCell id="IS7KMr-Yb7G154o8vXIG-71" value="+manageRooms(roomData) : Promise&lt;Room&gt;" style="text;strokeColor=none;fillColor=none;align=left;verticalAlign=top;spacingLeft=4;spacingRight=4;overflow=hidden;rotatable=0;points=[[0,0.5],[1,0.5]];portConstraint=eastwest;" parent="IS7KMr-Yb7G154o8vXIG-67" vertex="1">
          <mxGeometry y="124.66666666666666" width="480" height="40" as="geometry" />
        </mxCell>
        <mxCell id="IS7KMr-Yb7G154o8vXIG-72" value="+manageReservations(id, status) : Promise&lt;Reservation&gt;" style="text;strokeColor=none;fillColor=none;align=left;verticalAlign=top;spacingLeft=4;spacingRight=4;overflow=hidden;rotatable=0;points=[[0,0.5],[1,0.5]];portConstraint=eastwest;" parent="IS7KMr-Yb7G154o8vXIG-67" vertex="1">
          <mxGeometry y="164.66666666666666" width="480" height="40" as="geometry" />
        </mxCell>
        <mxCell id="IS7KMr-Yb7G154o8vXIG-73" value="+generateReports(type, params) : Promise&lt;Report&gt;" style="text;strokeColor=none;fillColor=none;align=left;verticalAlign=top;spacingLeft=4;spacingRight=4;overflow=hidden;rotatable=0;points=[[0,0.5],[1,0.5]];portConstraint=eastwest;" parent="IS7KMr-Yb7G154o8vXIG-67" vertex="1">
          <mxGeometry y="204.66666666666666" width="480" height="40" as="geometry" />
        </mxCell>
        <mxCell id="IS7KMr-Yb7G154o8vXIG-74" value="Hotel" style="swimlane;fontStyle=1;align=center;verticalAlign=top;childLayout=stackLayout;horizontal=1;startSize=29.333333333333332;horizontalStack=0;resizeParent=1;resizeParentMax=0;resizeLast=0;collapsible=0;marginBottom=0;" parent="1" vertex="1">
          <mxGeometry x="1580" y="400" width="480" height="369.3333333333333" as="geometry" />
        </mxCell>
        <mxCell id="IS7KMr-Yb7G154o8vXIG-75" value="-name: string" style="text;strokeColor=none;fillColor=none;align=left;verticalAlign=top;spacingLeft=4;spacingRight=4;overflow=hidden;rotatable=0;points=[[0,0.5],[1,0.5]];portConstraint=eastwest;" parent="IS7KMr-Yb7G154o8vXIG-74" vertex="1">
          <mxGeometry y="29.333333333333332" width="480" height="30" as="geometry" />
        </mxCell>
        <mxCell id="IS7KMr-Yb7G154o8vXIG-76" value="-description: string" style="text;strokeColor=none;fillColor=none;align=left;verticalAlign=top;spacingLeft=4;spacingRight=4;overflow=hidden;rotatable=0;points=[[0,0.5],[1,0.5]];portConstraint=eastwest;" parent="IS7KMr-Yb7G154o8vXIG-74" vertex="1">
          <mxGeometry y="59.33333333333333" width="480" height="30" as="geometry" />
        </mxCell>
        <mxCell id="IS7KMr-Yb7G154o8vXIG-77" value="-address: Address" style="text;strokeColor=none;fillColor=none;align=left;verticalAlign=top;spacingLeft=4;spacingRight=4;overflow=hidden;rotatable=0;points=[[0,0.5],[1,0.5]];portConstraint=eastwest;" parent="IS7KMr-Yb7G154o8vXIG-74" vertex="1">
          <mxGeometry y="89.33333333333333" width="480" height="30" as="geometry" />
        </mxCell>
        <mxCell id="IS7KMr-Yb7G154o8vXIG-78" value="-amenities: string[]" style="text;strokeColor=none;fillColor=none;align=left;verticalAlign=top;spacingLeft=4;spacingRight=4;overflow=hidden;rotatable=0;points=[[0,0.5],[1,0.5]];portConstraint=eastwest;" parent="IS7KMr-Yb7G154o8vXIG-74" vertex="1">
          <mxGeometry y="119.33333333333333" width="480" height="30" as="geometry" />
        </mxCell>
        <mxCell id="IS7KMr-Yb7G154o8vXIG-79" value="-photos: string[]" style="text;strokeColor=none;fillColor=none;align=left;verticalAlign=top;spacingLeft=4;spacingRight=4;overflow=hidden;rotatable=0;points=[[0,0.5],[1,0.5]];portConstraint=eastwest;" parent="IS7KMr-Yb7G154o8vXIG-74" vertex="1">
          <mxGeometry y="149.33333333333331" width="480" height="30" as="geometry" />
        </mxCell>
        <mxCell id="IS7KMr-Yb7G154o8vXIG-80" value="-averageRating: number" style="text;strokeColor=none;fillColor=none;align=left;verticalAlign=top;spacingLeft=4;spacingRight=4;overflow=hidden;rotatable=0;points=[[0,0.5],[1,0.5]];portConstraint=eastwest;" parent="IS7KMr-Yb7G154o8vXIG-74" vertex="1">
          <mxGeometry y="179.33333333333331" width="480" height="30" as="geometry" />
        </mxCell>
        <mxCell id="IS7KMr-Yb7G154o8vXIG-81" value="-ownerId: string" style="text;strokeColor=none;fillColor=none;align=left;verticalAlign=top;spacingLeft=4;spacingRight=4;overflow=hidden;rotatable=0;points=[[0,0.5],[1,0.5]];portConstraint=eastwest;" parent="IS7KMr-Yb7G154o8vXIG-74" vertex="1">
          <mxGeometry y="209.33333333333331" width="480" height="30" as="geometry" />
        </mxCell>
        <mxCell id="IS7KMr-Yb7G154o8vXIG-82" style="line;strokeWidth=1;fillColor=none;align=left;verticalAlign=middle;spacingTop=-1;spacingLeft=3;spacingRight=3;rotatable=0;labelPosition=right;points=[];portConstraint=eastwest;strokeColor=inherit;" parent="IS7KMr-Yb7G154o8vXIG-74" vertex="1">
          <mxGeometry y="239.33333333333331" width="480" height="10" as="geometry" />
        </mxCell>
        <mxCell id="IS7KMr-Yb7G154o8vXIG-83" value="+addRoom(roomData) : Promise&lt;Room&gt;" style="text;strokeColor=none;fillColor=none;align=left;verticalAlign=top;spacingLeft=4;spacingRight=4;overflow=hidden;rotatable=0;points=[[0,0.5],[1,0.5]];portConstraint=eastwest;" parent="IS7KMr-Yb7G154o8vXIG-74" vertex="1">
          <mxGeometry y="249.33333333333331" width="480" height="30" as="geometry" />
        </mxCell>
        <mxCell id="IS7KMr-Yb7G154o8vXIG-84" value="+updateInfo(hotelData) : Promise&lt;Hotel&gt;" style="text;strokeColor=none;fillColor=none;align=left;verticalAlign=top;spacingLeft=4;spacingRight=4;overflow=hidden;rotatable=0;points=[[0,0.5],[1,0.5]];portConstraint=eastwest;" parent="IS7KMr-Yb7G154o8vXIG-74" vertex="1">
          <mxGeometry y="279.3333333333333" width="480" height="30" as="geometry" />
        </mxCell>
        <mxCell id="IS7KMr-Yb7G154o8vXIG-85" value="+calculateAverageRating() : number" style="text;strokeColor=none;fillColor=none;align=left;verticalAlign=top;spacingLeft=4;spacingRight=4;overflow=hidden;rotatable=0;points=[[0,0.5],[1,0.5]];portConstraint=eastwest;" parent="IS7KMr-Yb7G154o8vXIG-74" vertex="1">
          <mxGeometry y="309.3333333333333" width="480" height="30" as="geometry" />
        </mxCell>
        <mxCell id="IS7KMr-Yb7G154o8vXIG-86" value="+getAvailableRooms(startDate, endDate) : Promise&lt;Room[]&gt;" style="text;strokeColor=none;fillColor=none;align=left;verticalAlign=top;spacingLeft=4;spacingRight=4;overflow=hidden;rotatable=0;points=[[0,0.5],[1,0.5]];portConstraint=eastwest;" parent="IS7KMr-Yb7G154o8vXIG-74" vertex="1">
          <mxGeometry y="339.3333333333333" width="480" height="30" as="geometry" />
        </mxCell>
        <mxCell id="IS7KMr-Yb7G154o8vXIG-87" value="Room" style="swimlane;fontStyle=1;align=center;verticalAlign=top;childLayout=stackLayout;horizontal=1;startSize=28.923076923076923;horizontalStack=0;resizeParent=1;resizeParentMax=0;resizeLast=0;collapsible=0;marginBottom=0;" parent="1" vertex="1">
          <mxGeometry x="2260" y="670" width="470" height="398.9230769230769" as="geometry" />
        </mxCell>
        <mxCell id="IS7KMr-Yb7G154o8vXIG-88" value="-hotelId: string" style="text;strokeColor=none;fillColor=none;align=left;verticalAlign=top;spacingLeft=4;spacingRight=4;overflow=hidden;rotatable=0;points=[[0,0.5],[1,0.5]];portConstraint=eastwest;" parent="IS7KMr-Yb7G154o8vXIG-87" vertex="1">
          <mxGeometry y="28.923076923076923" width="470" height="30" as="geometry" />
        </mxCell>
        <mxCell id="IS7KMr-Yb7G154o8vXIG-89" value="-number: string" style="text;strokeColor=none;fillColor=none;align=left;verticalAlign=top;spacingLeft=4;spacingRight=4;overflow=hidden;rotatable=0;points=[[0,0.5],[1,0.5]];portConstraint=eastwest;" parent="IS7KMr-Yb7G154o8vXIG-87" vertex="1">
          <mxGeometry y="58.92307692307692" width="470" height="30" as="geometry" />
        </mxCell>
        <mxCell id="IS7KMr-Yb7G154o8vXIG-90" value="-type: RoomType" style="text;strokeColor=none;fillColor=none;align=left;verticalAlign=top;spacingLeft=4;spacingRight=4;overflow=hidden;rotatable=0;points=[[0,0.5],[1,0.5]];portConstraint=eastwest;" parent="IS7KMr-Yb7G154o8vXIG-87" vertex="1">
          <mxGeometry y="88.92307692307692" width="470" height="30" as="geometry" />
        </mxCell>
        <mxCell id="IS7KMr-Yb7G154o8vXIG-91" value="-capacity: number" style="text;strokeColor=none;fillColor=none;align=left;verticalAlign=top;spacingLeft=4;spacingRight=4;overflow=hidden;rotatable=0;points=[[0,0.5],[1,0.5]];portConstraint=eastwest;" parent="IS7KMr-Yb7G154o8vXIG-87" vertex="1">
          <mxGeometry y="118.92307692307692" width="470" height="30" as="geometry" />
        </mxCell>
        <mxCell id="IS7KMr-Yb7G154o8vXIG-92" value="-price: Money" style="text;strokeColor=none;fillColor=none;align=left;verticalAlign=top;spacingLeft=4;spacingRight=4;overflow=hidden;rotatable=0;points=[[0,0.5],[1,0.5]];portConstraint=eastwest;" parent="IS7KMr-Yb7G154o8vXIG-87" vertex="1">
          <mxGeometry y="148.9230769230769" width="470" height="30" as="geometry" />
        </mxCell>
        <mxCell id="IS7KMr-Yb7G154o8vXIG-93" value="-amenities: string[]" style="text;strokeColor=none;fillColor=none;align=left;verticalAlign=top;spacingLeft=4;spacingRight=4;overflow=hidden;rotatable=0;points=[[0,0.5],[1,0.5]];portConstraint=eastwest;" parent="IS7KMr-Yb7G154o8vXIG-87" vertex="1">
          <mxGeometry y="178.9230769230769" width="470" height="30" as="geometry" />
        </mxCell>
        <mxCell id="IS7KMr-Yb7G154o8vXIG-94" value="-isAvailable: boolean" style="text;strokeColor=none;fillColor=none;align=left;verticalAlign=top;spacingLeft=4;spacingRight=4;overflow=hidden;rotatable=0;points=[[0,0.5],[1,0.5]];portConstraint=eastwest;" parent="IS7KMr-Yb7G154o8vXIG-87" vertex="1">
          <mxGeometry y="208.9230769230769" width="470" height="30" as="geometry" />
        </mxCell>
        <mxCell id="IS7KMr-Yb7G154o8vXIG-95" value="-images: string[]" style="text;strokeColor=none;fillColor=none;align=left;verticalAlign=top;spacingLeft=4;spacingRight=4;overflow=hidden;rotatable=0;points=[[0,0.5],[1,0.5]];portConstraint=eastwest;" parent="IS7KMr-Yb7G154o8vXIG-87" vertex="1">
          <mxGeometry y="238.9230769230769" width="470" height="30" as="geometry" />
        </mxCell>
        <mxCell id="IS7KMr-Yb7G154o8vXIG-96" style="line;strokeWidth=1;fillColor=none;align=left;verticalAlign=middle;spacingTop=-1;spacingLeft=3;spacingRight=3;rotatable=0;labelPosition=right;points=[];portConstraint=eastwest;strokeColor=inherit;" parent="IS7KMr-Yb7G154o8vXIG-87" vertex="1">
          <mxGeometry y="268.9230769230769" width="470" height="10" as="geometry" />
        </mxCell>
        <mxCell id="IS7KMr-Yb7G154o8vXIG-97" value="+checkAvailability(startDate, endDate) : Promise&lt;boolean&gt;" style="text;strokeColor=none;fillColor=none;align=left;verticalAlign=top;spacingLeft=4;spacingRight=4;overflow=hidden;rotatable=0;points=[[0,0.5],[1,0.5]];portConstraint=eastwest;" parent="IS7KMr-Yb7G154o8vXIG-87" vertex="1">
          <mxGeometry y="278.9230769230769" width="470" height="30" as="geometry" />
        </mxCell>
        <mxCell id="IS7KMr-Yb7G154o8vXIG-98" value="+updateDetails(roomData) : Promise&lt;Room&gt;" style="text;strokeColor=none;fillColor=none;align=left;verticalAlign=top;spacingLeft=4;spacingRight=4;overflow=hidden;rotatable=0;points=[[0,0.5],[1,0.5]];portConstraint=eastwest;" parent="IS7KMr-Yb7G154o8vXIG-87" vertex="1">
          <mxGeometry y="308.9230769230769" width="470" height="30" as="geometry" />
        </mxCell>
        <mxCell id="IS7KMr-Yb7G154o8vXIG-99" value="+blockTemporarily(duration) : Promise&lt;void&gt;" style="text;strokeColor=none;fillColor=none;align=left;verticalAlign=top;spacingLeft=4;spacingRight=4;overflow=hidden;rotatable=0;points=[[0,0.5],[1,0.5]];portConstraint=eastwest;" parent="IS7KMr-Yb7G154o8vXIG-87" vertex="1">
          <mxGeometry y="338.9230769230769" width="470" height="30" as="geometry" />
        </mxCell>
        <mxCell id="IS7KMr-Yb7G154o8vXIG-100" value="+unblock() : Promise&lt;void&gt;" style="text;strokeColor=none;fillColor=none;align=left;verticalAlign=top;spacingLeft=4;spacingRight=4;overflow=hidden;rotatable=0;points=[[0,0.5],[1,0.5]];portConstraint=eastwest;" parent="IS7KMr-Yb7G154o8vXIG-87" vertex="1">
          <mxGeometry y="368.9230769230769" width="470" height="30" as="geometry" />
        </mxCell>
        <mxCell id="IS7KMr-Yb7G154o8vXIG-101" value="Reservation" style="swimlane;fontStyle=1;align=center;verticalAlign=top;childLayout=stackLayout;horizontal=1;startSize=28.923076923076923;horizontalStack=0;resizeParent=1;resizeParentMax=0;resizeLast=0;collapsible=0;marginBottom=0;" parent="1" vertex="1">
          <mxGeometry x="2920" y="670" width="350" height="398.9230769230769" as="geometry" />
        </mxCell>
        <mxCell id="IS7KMr-Yb7G154o8vXIG-102" value="-customerId: string" style="text;strokeColor=none;fillColor=none;align=left;verticalAlign=top;spacingLeft=4;spacingRight=4;overflow=hidden;rotatable=0;points=[[0,0.5],[1,0.5]];portConstraint=eastwest;" parent="IS7KMr-Yb7G154o8vXIG-101" vertex="1">
          <mxGeometry y="28.923076923076923" width="350" height="30" as="geometry" />
        </mxCell>
        <mxCell id="IS7KMr-Yb7G154o8vXIG-103" value="-hotelId: string" style="text;strokeColor=none;fillColor=none;align=left;verticalAlign=top;spacingLeft=4;spacingRight=4;overflow=hidden;rotatable=0;points=[[0,0.5],[1,0.5]];portConstraint=eastwest;" parent="IS7KMr-Yb7G154o8vXIG-101" vertex="1">
          <mxGeometry y="58.92307692307692" width="350" height="30" as="geometry" />
        </mxCell>
        <mxCell id="IS7KMr-Yb7G154o8vXIG-104" value="-roomId: string" style="text;strokeColor=none;fillColor=none;align=left;verticalAlign=top;spacingLeft=4;spacingRight=4;overflow=hidden;rotatable=0;points=[[0,0.5],[1,0.5]];portConstraint=eastwest;" parent="IS7KMr-Yb7G154o8vXIG-101" vertex="1">
          <mxGeometry y="88.92307692307692" width="350" height="30" as="geometry" />
        </mxCell>
        <mxCell id="IS7KMr-Yb7G154o8vXIG-105" value="-checkInDate: Date" style="text;strokeColor=none;fillColor=none;align=left;verticalAlign=top;spacingLeft=4;spacingRight=4;overflow=hidden;rotatable=0;points=[[0,0.5],[1,0.5]];portConstraint=eastwest;" parent="IS7KMr-Yb7G154o8vXIG-101" vertex="1">
          <mxGeometry y="118.92307692307692" width="350" height="30" as="geometry" />
        </mxCell>
        <mxCell id="IS7KMr-Yb7G154o8vXIG-106" value="-checkOutDate: Date" style="text;strokeColor=none;fillColor=none;align=left;verticalAlign=top;spacingLeft=4;spacingRight=4;overflow=hidden;rotatable=0;points=[[0,0.5],[1,0.5]];portConstraint=eastwest;" parent="IS7KMr-Yb7G154o8vXIG-101" vertex="1">
          <mxGeometry y="148.9230769230769" width="350" height="30" as="geometry" />
        </mxCell>
        <mxCell id="IS7KMr-Yb7G154o8vXIG-107" value="-status: ReservationStatus" style="text;strokeColor=none;fillColor=none;align=left;verticalAlign=top;spacingLeft=4;spacingRight=4;overflow=hidden;rotatable=0;points=[[0,0.5],[1,0.5]];portConstraint=eastwest;" parent="IS7KMr-Yb7G154o8vXIG-101" vertex="1">
          <mxGeometry y="178.9230769230769" width="350" height="30" as="geometry" />
        </mxCell>
        <mxCell id="IS7KMr-Yb7G154o8vXIG-108" value="-totalPrice: Money" style="text;strokeColor=none;fillColor=none;align=left;verticalAlign=top;spacingLeft=4;spacingRight=4;overflow=hidden;rotatable=0;points=[[0,0.5],[1,0.5]];portConstraint=eastwest;" parent="IS7KMr-Yb7G154o8vXIG-101" vertex="1">
          <mxGeometry y="208.9230769230769" width="350" height="30" as="geometry" />
        </mxCell>
        <mxCell id="IS7KMr-Yb7G154o8vXIG-109" value="-guestCount: number" style="text;strokeColor=none;fillColor=none;align=left;verticalAlign=top;spacingLeft=4;spacingRight=4;overflow=hidden;rotatable=0;points=[[0,0.5],[1,0.5]];portConstraint=eastwest;" parent="IS7KMr-Yb7G154o8vXIG-101" vertex="1">
          <mxGeometry y="238.9230769230769" width="350" height="30" as="geometry" />
        </mxCell>
        <mxCell id="IS7KMr-Yb7G154o8vXIG-110" style="line;strokeWidth=1;fillColor=none;align=left;verticalAlign=middle;spacingTop=-1;spacingLeft=3;spacingRight=3;rotatable=0;labelPosition=right;points=[];portConstraint=eastwest;strokeColor=inherit;" parent="IS7KMr-Yb7G154o8vXIG-101" vertex="1">
          <mxGeometry y="268.9230769230769" width="350" height="10" as="geometry" />
        </mxCell>
        <mxCell id="IS7KMr-Yb7G154o8vXIG-111" value="+confirm() : Promise&lt;Reservation&gt;" style="text;strokeColor=none;fillColor=none;align=left;verticalAlign=top;spacingLeft=4;spacingRight=4;overflow=hidden;rotatable=0;points=[[0,0.5],[1,0.5]];portConstraint=eastwest;" parent="IS7KMr-Yb7G154o8vXIG-101" vertex="1">
          <mxGeometry y="278.9230769230769" width="350" height="30" as="geometry" />
        </mxCell>
        <mxCell id="IS7KMr-Yb7G154o8vXIG-112" value="+reject(reason) : Promise&lt;Reservation&gt;" style="text;strokeColor=none;fillColor=none;align=left;verticalAlign=top;spacingLeft=4;spacingRight=4;overflow=hidden;rotatable=0;points=[[0,0.5],[1,0.5]];portConstraint=eastwest;" parent="IS7KMr-Yb7G154o8vXIG-101" vertex="1">
          <mxGeometry y="308.9230769230769" width="350" height="30" as="geometry" />
        </mxCell>
        <mxCell id="IS7KMr-Yb7G154o8vXIG-113" value="+cancel() : Promise&lt;Reservation&gt;" style="text;strokeColor=none;fillColor=none;align=left;verticalAlign=top;spacingLeft=4;spacingRight=4;overflow=hidden;rotatable=0;points=[[0,0.5],[1,0.5]];portConstraint=eastwest;" parent="IS7KMr-Yb7G154o8vXIG-101" vertex="1">
          <mxGeometry y="338.9230769230769" width="350" height="30" as="geometry" />
        </mxCell>
        <mxCell id="IS7KMr-Yb7G154o8vXIG-114" value="+calculateTotalPrice() : Money" style="text;strokeColor=none;fillColor=none;align=left;verticalAlign=top;spacingLeft=4;spacingRight=4;overflow=hidden;rotatable=0;points=[[0,0.5],[1,0.5]];portConstraint=eastwest;" parent="IS7KMr-Yb7G154o8vXIG-101" vertex="1">
          <mxGeometry y="368.9230769230769" width="350" height="30" as="geometry" />
        </mxCell>
        <mxCell id="IS7KMr-Yb7G154o8vXIG-115" value="Payment" style="swimlane;fontStyle=1;align=center;verticalAlign=top;childLayout=stackLayout;horizontal=1;startSize=30.4;horizontalStack=0;resizeParent=1;resizeParentMax=0;resizeLast=0;collapsible=0;marginBottom=0;" parent="1" vertex="1">
          <mxGeometry x="3490" y="850" width="330" height="310.4" as="geometry" />
        </mxCell>
        <mxCell id="IS7KMr-Yb7G154o8vXIG-116" value="-reservationId: string" style="text;strokeColor=none;fillColor=none;align=left;verticalAlign=top;spacingLeft=4;spacingRight=4;overflow=hidden;rotatable=0;points=[[0,0.5],[1,0.5]];portConstraint=eastwest;" parent="IS7KMr-Yb7G154o8vXIG-115" vertex="1">
          <mxGeometry y="30.4" width="330" height="30" as="geometry" />
        </mxCell>
        <mxCell id="IS7KMr-Yb7G154o8vXIG-117" value="-amount: Money" style="text;strokeColor=none;fillColor=none;align=left;verticalAlign=top;spacingLeft=4;spacingRight=4;overflow=hidden;rotatable=0;points=[[0,0.5],[1,0.5]];portConstraint=eastwest;" parent="IS7KMr-Yb7G154o8vXIG-115" vertex="1">
          <mxGeometry y="60.4" width="330" height="30" as="geometry" />
        </mxCell>
        <mxCell id="IS7KMr-Yb7G154o8vXIG-118" value="-status: string" style="text;strokeColor=none;fillColor=none;align=left;verticalAlign=top;spacingLeft=4;spacingRight=4;overflow=hidden;rotatable=0;points=[[0,0.5],[1,0.5]];portConstraint=eastwest;" parent="IS7KMr-Yb7G154o8vXIG-115" vertex="1">
          <mxGeometry y="90.4" width="330" height="30" as="geometry" />
        </mxCell>
        <mxCell id="IS7KMr-Yb7G154o8vXIG-119" value="-method: string" style="text;strokeColor=none;fillColor=none;align=left;verticalAlign=top;spacingLeft=4;spacingRight=4;overflow=hidden;rotatable=0;points=[[0,0.5],[1,0.5]];portConstraint=eastwest;" parent="IS7KMr-Yb7G154o8vXIG-115" vertex="1">
          <mxGeometry y="120.4" width="330" height="30" as="geometry" />
        </mxCell>
        <mxCell id="IS7KMr-Yb7G154o8vXIG-120" value="-transactionId: string" style="text;strokeColor=none;fillColor=none;align=left;verticalAlign=top;spacingLeft=4;spacingRight=4;overflow=hidden;rotatable=0;points=[[0,0.5],[1,0.5]];portConstraint=eastwest;" parent="IS7KMr-Yb7G154o8vXIG-115" vertex="1">
          <mxGeometry y="150.4" width="330" height="30" as="geometry" />
        </mxCell>
        <mxCell id="IS7KMr-Yb7G154o8vXIG-121" value="-paymentDate: Date" style="text;strokeColor=none;fillColor=none;align=left;verticalAlign=top;spacingLeft=4;spacingRight=4;overflow=hidden;rotatable=0;points=[[0,0.5],[1,0.5]];portConstraint=eastwest;" parent="IS7KMr-Yb7G154o8vXIG-115" vertex="1">
          <mxGeometry y="180.4" width="330" height="30" as="geometry" />
        </mxCell>
        <mxCell id="IS7KMr-Yb7G154o8vXIG-122" style="line;strokeWidth=1;fillColor=none;align=left;verticalAlign=middle;spacingTop=-1;spacingLeft=3;spacingRight=3;rotatable=0;labelPosition=right;points=[];portConstraint=eastwest;strokeColor=inherit;" parent="IS7KMr-Yb7G154o8vXIG-115" vertex="1">
          <mxGeometry y="210.4" width="330" height="10" as="geometry" />
        </mxCell>
        <mxCell id="IS7KMr-Yb7G154o8vXIG-123" value="+process() : Promise&lt;Payment&gt;" style="text;strokeColor=none;fillColor=none;align=left;verticalAlign=top;spacingLeft=4;spacingRight=4;overflow=hidden;rotatable=0;points=[[0,0.5],[1,0.5]];portConstraint=eastwest;" parent="IS7KMr-Yb7G154o8vXIG-115" vertex="1">
          <mxGeometry y="220.4" width="330" height="30" as="geometry" />
        </mxCell>
        <mxCell id="IS7KMr-Yb7G154o8vXIG-124" value="+refund() : Promise&lt;Payment&gt;" style="text;strokeColor=none;fillColor=none;align=left;verticalAlign=top;spacingLeft=4;spacingRight=4;overflow=hidden;rotatable=0;points=[[0,0.5],[1,0.5]];portConstraint=eastwest;" parent="IS7KMr-Yb7G154o8vXIG-115" vertex="1">
          <mxGeometry y="250.4" width="330" height="30" as="geometry" />
        </mxCell>
        <mxCell id="IS7KMr-Yb7G154o8vXIG-125" value="+generateReceipt() : Promise&lt;string&gt;" style="text;strokeColor=none;fillColor=none;align=left;verticalAlign=top;spacingLeft=4;spacingRight=4;overflow=hidden;rotatable=0;points=[[0,0.5],[1,0.5]];portConstraint=eastwest;" parent="IS7KMr-Yb7G154o8vXIG-115" vertex="1">
          <mxGeometry y="280.4" width="330" height="30" as="geometry" />
        </mxCell>
        <mxCell id="IS7KMr-Yb7G154o8vXIG-126" value="Review" style="swimlane;fontStyle=1;align=center;verticalAlign=top;childLayout=stackLayout;horizontal=1;startSize=31.11111111111111;horizontalStack=0;resizeParent=1;resizeParentMax=0;resizeLast=0;collapsible=0;marginBottom=0;" parent="1" vertex="1">
          <mxGeometry x="3480" y="370" width="350" height="281.1111111111111" as="geometry" />
        </mxCell>
        <mxCell id="IS7KMr-Yb7G154o8vXIG-127" value="-customerId: string" style="text;strokeColor=none;fillColor=none;align=left;verticalAlign=top;spacingLeft=4;spacingRight=4;overflow=hidden;rotatable=0;points=[[0,0.5],[1,0.5]];portConstraint=eastwest;" parent="IS7KMr-Yb7G154o8vXIG-126" vertex="1">
          <mxGeometry y="31.11111111111111" width="350" height="30" as="geometry" />
        </mxCell>
        <mxCell id="IS7KMr-Yb7G154o8vXIG-128" value="-hotelId: string" style="text;strokeColor=none;fillColor=none;align=left;verticalAlign=top;spacingLeft=4;spacingRight=4;overflow=hidden;rotatable=0;points=[[0,0.5],[1,0.5]];portConstraint=eastwest;" parent="IS7KMr-Yb7G154o8vXIG-126" vertex="1">
          <mxGeometry y="61.111111111111114" width="350" height="30" as="geometry" />
        </mxCell>
        <mxCell id="IS7KMr-Yb7G154o8vXIG-129" value="-reservationId: string" style="text;strokeColor=none;fillColor=none;align=left;verticalAlign=top;spacingLeft=4;spacingRight=4;overflow=hidden;rotatable=0;points=[[0,0.5],[1,0.5]];portConstraint=eastwest;" parent="IS7KMr-Yb7G154o8vXIG-126" vertex="1">
          <mxGeometry y="91.11111111111111" width="350" height="30" as="geometry" />
        </mxCell>
        <mxCell id="IS7KMr-Yb7G154o8vXIG-130" value="-rating: number" style="text;strokeColor=none;fillColor=none;align=left;verticalAlign=top;spacingLeft=4;spacingRight=4;overflow=hidden;rotatable=0;points=[[0,0.5],[1,0.5]];portConstraint=eastwest;" parent="IS7KMr-Yb7G154o8vXIG-126" vertex="1">
          <mxGeometry y="121.11111111111111" width="350" height="30" as="geometry" />
        </mxCell>
        <mxCell id="IS7KMr-Yb7G154o8vXIG-131" value="-content: string" style="text;strokeColor=none;fillColor=none;align=left;verticalAlign=top;spacingLeft=4;spacingRight=4;overflow=hidden;rotatable=0;points=[[0,0.5],[1,0.5]];portConstraint=eastwest;" parent="IS7KMr-Yb7G154o8vXIG-126" vertex="1">
          <mxGeometry y="151.11111111111111" width="350" height="30" as="geometry" />
        </mxCell>
        <mxCell id="IS7KMr-Yb7G154o8vXIG-132" value="-images: string[]" style="text;strokeColor=none;fillColor=none;align=left;verticalAlign=top;spacingLeft=4;spacingRight=4;overflow=hidden;rotatable=0;points=[[0,0.5],[1,0.5]];portConstraint=eastwest;" parent="IS7KMr-Yb7G154o8vXIG-126" vertex="1">
          <mxGeometry y="181.11111111111111" width="350" height="30" as="geometry" />
        </mxCell>
        <mxCell id="IS7KMr-Yb7G154o8vXIG-133" style="line;strokeWidth=1;fillColor=none;align=left;verticalAlign=middle;spacingTop=-1;spacingLeft=3;spacingRight=3;rotatable=0;labelPosition=right;points=[];portConstraint=eastwest;strokeColor=inherit;" parent="IS7KMr-Yb7G154o8vXIG-126" vertex="1">
          <mxGeometry y="211.11111111111111" width="350" height="10" as="geometry" />
        </mxCell>
        <mxCell id="IS7KMr-Yb7G154o8vXIG-134" value="+updateReview(data) : Promise&lt;Review&gt;" style="text;strokeColor=none;fillColor=none;align=left;verticalAlign=top;spacingLeft=4;spacingRight=4;overflow=hidden;rotatable=0;points=[[0,0.5],[1,0.5]];portConstraint=eastwest;" parent="IS7KMr-Yb7G154o8vXIG-126" vertex="1">
          <mxGeometry y="221.11111111111111" width="350" height="30" as="geometry" />
        </mxCell>
        <mxCell id="IS7KMr-Yb7G154o8vXIG-135" value="+deleteReview() : Promise&lt;boolean&gt;" style="text;strokeColor=none;fillColor=none;align=left;verticalAlign=top;spacingLeft=4;spacingRight=4;overflow=hidden;rotatable=0;points=[[0,0.5],[1,0.5]];portConstraint=eastwest;" parent="IS7KMr-Yb7G154o8vXIG-126" vertex="1">
          <mxGeometry y="251.11111111111111" width="350" height="30" as="geometry" />
        </mxCell>
        <mxCell id="IS7KMr-Yb7G154o8vXIG-136" value="Notification" style="swimlane;fontStyle=1;align=center;verticalAlign=top;childLayout=stackLayout;horizontal=1;startSize=32;horizontalStack=0;resizeParent=1;resizeParentMax=0;resizeLast=0;collapsible=0;marginBottom=0;" parent="1" vertex="1">
          <mxGeometry x="960" y="860" width="350" height="252" as="geometry" />
        </mxCell>
        <mxCell id="IS7KMr-Yb7G154o8vXIG-137" value="-userId: string" style="text;strokeColor=none;fillColor=none;align=left;verticalAlign=top;spacingLeft=4;spacingRight=4;overflow=hidden;rotatable=0;points=[[0,0.5],[1,0.5]];portConstraint=eastwest;" parent="IS7KMr-Yb7G154o8vXIG-136" vertex="1">
          <mxGeometry y="32" width="350" height="30" as="geometry" />
        </mxCell>
        <mxCell id="IS7KMr-Yb7G154o8vXIG-138" value="-type: NotificationType" style="text;strokeColor=none;fillColor=none;align=left;verticalAlign=top;spacingLeft=4;spacingRight=4;overflow=hidden;rotatable=0;points=[[0,0.5],[1,0.5]];portConstraint=eastwest;" parent="IS7KMr-Yb7G154o8vXIG-136" vertex="1">
          <mxGeometry y="62" width="350" height="30" as="geometry" />
        </mxCell>
        <mxCell id="IS7KMr-Yb7G154o8vXIG-139" value="-message: string" style="text;strokeColor=none;fillColor=none;align=left;verticalAlign=top;spacingLeft=4;spacingRight=4;overflow=hidden;rotatable=0;points=[[0,0.5],[1,0.5]];portConstraint=eastwest;" parent="IS7KMr-Yb7G154o8vXIG-136" vertex="1">
          <mxGeometry y="92" width="350" height="30" as="geometry" />
        </mxCell>
        <mxCell id="IS7KMr-Yb7G154o8vXIG-140" value="-isRead: boolean" style="text;strokeColor=none;fillColor=none;align=left;verticalAlign=top;spacingLeft=4;spacingRight=4;overflow=hidden;rotatable=0;points=[[0,0.5],[1,0.5]];portConstraint=eastwest;" parent="IS7KMr-Yb7G154o8vXIG-136" vertex="1">
          <mxGeometry y="122" width="350" height="30" as="geometry" />
        </mxCell>
        <mxCell id="IS7KMr-Yb7G154o8vXIG-141" value="-data: Object" style="text;strokeColor=none;fillColor=none;align=left;verticalAlign=top;spacingLeft=4;spacingRight=4;overflow=hidden;rotatable=0;points=[[0,0.5],[1,0.5]];portConstraint=eastwest;" parent="IS7KMr-Yb7G154o8vXIG-136" vertex="1">
          <mxGeometry y="152" width="350" height="30" as="geometry" />
        </mxCell>
        <mxCell id="IS7KMr-Yb7G154o8vXIG-142" style="line;strokeWidth=1;fillColor=none;align=left;verticalAlign=middle;spacingTop=-1;spacingLeft=3;spacingRight=3;rotatable=0;labelPosition=right;points=[];portConstraint=eastwest;strokeColor=inherit;" parent="IS7KMr-Yb7G154o8vXIG-136" vertex="1">
          <mxGeometry y="182" width="350" height="10" as="geometry" />
        </mxCell>
        <mxCell id="IS7KMr-Yb7G154o8vXIG-143" value="+markAsRead() : Promise&lt;Notification&gt;" style="text;strokeColor=none;fillColor=none;align=left;verticalAlign=top;spacingLeft=4;spacingRight=4;overflow=hidden;rotatable=0;points=[[0,0.5],[1,0.5]];portConstraint=eastwest;" parent="IS7KMr-Yb7G154o8vXIG-136" vertex="1">
          <mxGeometry y="192" width="350" height="30" as="geometry" />
        </mxCell>
        <mxCell id="IS7KMr-Yb7G154o8vXIG-144" value="+send() : Promise&lt;boolean&gt;" style="text;strokeColor=none;fillColor=none;align=left;verticalAlign=top;spacingLeft=4;spacingRight=4;overflow=hidden;rotatable=0;points=[[0,0.5],[1,0.5]];portConstraint=eastwest;" parent="IS7KMr-Yb7G154o8vXIG-136" vertex="1">
          <mxGeometry y="222" width="350" height="30" as="geometry" />
        </mxCell>
        <mxCell id="IS7KMr-Yb7G154o8vXIG-145" value="Report" style="swimlane;fontStyle=1;align=center;verticalAlign=top;childLayout=stackLayout;horizontal=1;startSize=32;horizontalStack=0;resizeParent=1;resizeParentMax=0;resizeLast=0;collapsible=0;marginBottom=0;" parent="1" vertex="1">
          <mxGeometry x="1670" y="860" width="290" height="252" as="geometry" />
        </mxCell>
        <mxCell id="IS7KMr-Yb7G154o8vXIG-146" value="-hotelId: string" style="text;strokeColor=none;fillColor=none;align=left;verticalAlign=top;spacingLeft=4;spacingRight=4;overflow=hidden;rotatable=0;points=[[0,0.5],[1,0.5]];portConstraint=eastwest;" parent="IS7KMr-Yb7G154o8vXIG-145" vertex="1">
          <mxGeometry y="32" width="290" height="30" as="geometry" />
        </mxCell>
        <mxCell id="IS7KMr-Yb7G154o8vXIG-147" value="-type: ReportType" style="text;strokeColor=none;fillColor=none;align=left;verticalAlign=top;spacingLeft=4;spacingRight=4;overflow=hidden;rotatable=0;points=[[0,0.5],[1,0.5]];portConstraint=eastwest;" parent="IS7KMr-Yb7G154o8vXIG-145" vertex="1">
          <mxGeometry y="62" width="290" height="30" as="geometry" />
        </mxCell>
        <mxCell id="IS7KMr-Yb7G154o8vXIG-148" value="-startDate: Date" style="text;strokeColor=none;fillColor=none;align=left;verticalAlign=top;spacingLeft=4;spacingRight=4;overflow=hidden;rotatable=0;points=[[0,0.5],[1,0.5]];portConstraint=eastwest;" parent="IS7KMr-Yb7G154o8vXIG-145" vertex="1">
          <mxGeometry y="92" width="290" height="30" as="geometry" />
        </mxCell>
        <mxCell id="IS7KMr-Yb7G154o8vXIG-149" value="-endDate: Date" style="text;strokeColor=none;fillColor=none;align=left;verticalAlign=top;spacingLeft=4;spacingRight=4;overflow=hidden;rotatable=0;points=[[0,0.5],[1,0.5]];portConstraint=eastwest;" parent="IS7KMr-Yb7G154o8vXIG-145" vertex="1">
          <mxGeometry y="122" width="290" height="30" as="geometry" />
        </mxCell>
        <mxCell id="IS7KMr-Yb7G154o8vXIG-150" value="-data: Object" style="text;strokeColor=none;fillColor=none;align=left;verticalAlign=top;spacingLeft=4;spacingRight=4;overflow=hidden;rotatable=0;points=[[0,0.5],[1,0.5]];portConstraint=eastwest;" parent="IS7KMr-Yb7G154o8vXIG-145" vertex="1">
          <mxGeometry y="152" width="290" height="30" as="geometry" />
        </mxCell>
        <mxCell id="IS7KMr-Yb7G154o8vXIG-151" style="line;strokeWidth=1;fillColor=none;align=left;verticalAlign=middle;spacingTop=-1;spacingLeft=3;spacingRight=3;rotatable=0;labelPosition=right;points=[];portConstraint=eastwest;strokeColor=inherit;" parent="IS7KMr-Yb7G154o8vXIG-145" vertex="1">
          <mxGeometry y="182" width="290" height="10" as="geometry" />
        </mxCell>
        <mxCell id="IS7KMr-Yb7G154o8vXIG-152" value="+generate() : Promise&lt;Report&gt;" style="text;strokeColor=none;fillColor=none;align=left;verticalAlign=top;spacingLeft=4;spacingRight=4;overflow=hidden;rotatable=0;points=[[0,0.5],[1,0.5]];portConstraint=eastwest;" parent="IS7KMr-Yb7G154o8vXIG-145" vertex="1">
          <mxGeometry y="192" width="290" height="30" as="geometry" />
        </mxCell>
        <mxCell id="IS7KMr-Yb7G154o8vXIG-153" value="+export(format) : Promise&lt;string&gt;" style="text;strokeColor=none;fillColor=none;align=left;verticalAlign=top;spacingLeft=4;spacingRight=4;overflow=hidden;rotatable=0;points=[[0,0.5],[1,0.5]];portConstraint=eastwest;" parent="IS7KMr-Yb7G154o8vXIG-145" vertex="1">
          <mxGeometry y="222" width="290" height="30" as="geometry" />
        </mxCell>
        <mxCell id="IS7KMr-Yb7G154o8vXIG-154" value="AuthService" style="swimlane;fontStyle=1;align=center;verticalAlign=top;childLayout=stackLayout;horizontal=1;startSize=32.92307692307692;horizontalStack=0;resizeParent=1;resizeParentMax=0;resizeLast=0;collapsible=0;marginBottom=0;" parent="1" vertex="1">
          <mxGeometry x="520" y="1670" width="380" height="192.9230769230769" as="geometry" />
        </mxCell>
        <mxCell id="IS7KMr-Yb7G154o8vXIG-155" style="line;strokeWidth=1;fillColor=none;align=left;verticalAlign=middle;spacingTop=-1;spacingLeft=3;spacingRight=3;rotatable=0;labelPosition=right;points=[];portConstraint=eastwest;strokeColor=inherit;" parent="IS7KMr-Yb7G154o8vXIG-154" vertex="1">
          <mxGeometry y="32.92307692307692" width="380" height="10" as="geometry" />
        </mxCell>
        <mxCell id="IS7KMr-Yb7G154o8vXIG-156" value="+login(email, password) : Promise&lt;string&gt;" style="text;strokeColor=none;fillColor=none;align=left;verticalAlign=top;spacingLeft=4;spacingRight=4;overflow=hidden;rotatable=0;points=[[0,0.5],[1,0.5]];portConstraint=eastwest;" parent="IS7KMr-Yb7G154o8vXIG-154" vertex="1">
          <mxGeometry y="42.92307692307692" width="380" height="30" as="geometry" />
        </mxCell>
        <mxCell id="IS7KMr-Yb7G154o8vXIG-157" value="+register(userData) : Promise&lt;User&gt;" style="text;strokeColor=none;fillColor=none;align=left;verticalAlign=top;spacingLeft=4;spacingRight=4;overflow=hidden;rotatable=0;points=[[0,0.5],[1,0.5]];portConstraint=eastwest;" parent="IS7KMr-Yb7G154o8vXIG-154" vertex="1">
          <mxGeometry y="72.92307692307692" width="380" height="30" as="geometry" />
        </mxCell>
        <mxCell id="IS7KMr-Yb7G154o8vXIG-158" value="+logout() : Promise&lt;void&gt;" style="text;strokeColor=none;fillColor=none;align=left;verticalAlign=top;spacingLeft=4;spacingRight=4;overflow=hidden;rotatable=0;points=[[0,0.5],[1,0.5]];portConstraint=eastwest;" parent="IS7KMr-Yb7G154o8vXIG-154" vertex="1">
          <mxGeometry y="102.92307692307692" width="380" height="30" as="geometry" />
        </mxCell>
        <mxCell id="IS7KMr-Yb7G154o8vXIG-159" value="+resetPassword(email) : Promise&lt;boolean&gt;" style="text;strokeColor=none;fillColor=none;align=left;verticalAlign=top;spacingLeft=4;spacingRight=4;overflow=hidden;rotatable=0;points=[[0,0.5],[1,0.5]];portConstraint=eastwest;" parent="IS7KMr-Yb7G154o8vXIG-154" vertex="1">
          <mxGeometry y="132.9230769230769" width="380" height="30" as="geometry" />
        </mxCell>
        <mxCell id="IS7KMr-Yb7G154o8vXIG-160" value="+verifyToken(token) : Promise&lt;boolean&gt;" style="text;strokeColor=none;fillColor=none;align=left;verticalAlign=top;spacingLeft=4;spacingRight=4;overflow=hidden;rotatable=0;points=[[0,0.5],[1,0.5]];portConstraint=eastwest;" parent="IS7KMr-Yb7G154o8vXIG-154" vertex="1">
          <mxGeometry y="162.9230769230769" width="380" height="30" as="geometry" />
        </mxCell>
        <mxCell id="IS7KMr-Yb7G154o8vXIG-161" value="UserService" style="swimlane;fontStyle=1;align=center;verticalAlign=top;childLayout=stackLayout;horizontal=1;startSize=34.54545454545455;horizontalStack=0;resizeParent=1;resizeParentMax=0;resizeLast=0;collapsible=0;marginBottom=0;" parent="1" vertex="1">
          <mxGeometry x="470" y="2030" width="360" height="204.54545454545456" as="geometry" />
        </mxCell>
        <mxCell id="IS7KMr-Yb7G154o8vXIG-162" style="line;strokeWidth=1;fillColor=none;align=left;verticalAlign=middle;spacingTop=-1;spacingLeft=3;spacingRight=3;rotatable=0;labelPosition=right;points=[];portConstraint=eastwest;strokeColor=inherit;" parent="IS7KMr-Yb7G154o8vXIG-161" vertex="1">
          <mxGeometry y="34.54545454545455" width="360" height="10" as="geometry" />
        </mxCell>
        <mxCell id="IS7KMr-Yb7G154o8vXIG-163" value="+createUser(userData) : Promise&lt;User&gt;" style="text;strokeColor=none;fillColor=none;align=left;verticalAlign=top;spacingLeft=4;spacingRight=4;overflow=hidden;rotatable=0;points=[[0,0.5],[1,0.5]];portConstraint=eastwest;" parent="IS7KMr-Yb7G154o8vXIG-161" vertex="1">
          <mxGeometry y="44.54545454545455" width="360" height="40" as="geometry" />
        </mxCell>
        <mxCell id="IS7KMr-Yb7G154o8vXIG-164" value="+getUserById(id) : Promise&lt;User&gt;" style="text;strokeColor=none;fillColor=none;align=left;verticalAlign=top;spacingLeft=4;spacingRight=4;overflow=hidden;rotatable=0;points=[[0,0.5],[1,0.5]];portConstraint=eastwest;" parent="IS7KMr-Yb7G154o8vXIG-161" vertex="1">
          <mxGeometry y="84.54545454545455" width="360" height="40" as="geometry" />
        </mxCell>
        <mxCell id="IS7KMr-Yb7G154o8vXIG-165" value="+updateUser(id, data) : Promise&lt;User&gt;" style="text;strokeColor=none;fillColor=none;align=left;verticalAlign=top;spacingLeft=4;spacingRight=4;overflow=hidden;rotatable=0;points=[[0,0.5],[1,0.5]];portConstraint=eastwest;" parent="IS7KMr-Yb7G154o8vXIG-161" vertex="1">
          <mxGeometry y="124.54545454545455" width="360" height="40" as="geometry" />
        </mxCell>
        <mxCell id="IS7KMr-Yb7G154o8vXIG-166" value="+deleteUser(id) : Promise&lt;boolean&gt;" style="text;strokeColor=none;fillColor=none;align=left;verticalAlign=top;spacingLeft=4;spacingRight=4;overflow=hidden;rotatable=0;points=[[0,0.5],[1,0.5]];portConstraint=eastwest;" parent="IS7KMr-Yb7G154o8vXIG-161" vertex="1">
          <mxGeometry y="164.54545454545456" width="360" height="40" as="geometry" />
        </mxCell>
        <mxCell id="IS7KMr-Yb7G154o8vXIG-167" value="HotelService" style="swimlane;fontStyle=1;align=center;verticalAlign=top;childLayout=stackLayout;horizontal=1;startSize=31.733333333333334;horizontalStack=0;resizeParent=1;resizeParentMax=0;resizeLast=0;collapsible=0;marginBottom=0;" parent="1" vertex="1">
          <mxGeometry x="830" y="3320" width="600" height="221.73333333333335" as="geometry" />
        </mxCell>
        <mxCell id="IS7KMr-Yb7G154o8vXIG-168" style="line;strokeWidth=1;fillColor=none;align=left;verticalAlign=middle;spacingTop=-1;spacingLeft=3;spacingRight=3;rotatable=0;labelPosition=right;points=[];portConstraint=eastwest;strokeColor=inherit;" parent="IS7KMr-Yb7G154o8vXIG-167" vertex="1">
          <mxGeometry y="31.733333333333334" width="600" height="10" as="geometry" />
        </mxCell>
        <mxCell id="IS7KMr-Yb7G154o8vXIG-169" value="+getAllHotels(filters) : Promise&lt;Hotel[]&gt;" style="text;strokeColor=none;fillColor=none;align=left;verticalAlign=top;spacingLeft=4;spacingRight=4;overflow=hidden;rotatable=0;points=[[0,0.5],[1,0.5]];portConstraint=eastwest;" parent="IS7KMr-Yb7G154o8vXIG-167" vertex="1">
          <mxGeometry y="41.733333333333334" width="600" height="30" as="geometry" />
        </mxCell>
        <mxCell id="IS7KMr-Yb7G154o8vXIG-170" value="+getHotelById(id) : Promise&lt;Hotel&gt;" style="text;strokeColor=none;fillColor=none;align=left;verticalAlign=top;spacingLeft=4;spacingRight=4;overflow=hidden;rotatable=0;points=[[0,0.5],[1,0.5]];portConstraint=eastwest;" parent="IS7KMr-Yb7G154o8vXIG-167" vertex="1">
          <mxGeometry y="71.73333333333333" width="600" height="30" as="geometry" />
        </mxCell>
        <mxCell id="IS7KMr-Yb7G154o8vXIG-171" value="+createHotel(hotelData) : Promise&lt;Hotel&gt;" style="text;strokeColor=none;fillColor=none;align=left;verticalAlign=top;spacingLeft=4;spacingRight=4;overflow=hidden;rotatable=0;points=[[0,0.5],[1,0.5]];portConstraint=eastwest;" parent="IS7KMr-Yb7G154o8vXIG-167" vertex="1">
          <mxGeometry y="101.73333333333333" width="600" height="30" as="geometry" />
        </mxCell>
        <mxCell id="IS7KMr-Yb7G154o8vXIG-172" value="+updateHotel(id, data) : Promise&lt;Hotel&gt;" style="text;strokeColor=none;fillColor=none;align=left;verticalAlign=top;spacingLeft=4;spacingRight=4;overflow=hidden;rotatable=0;points=[[0,0.5],[1,0.5]];portConstraint=eastwest;" parent="IS7KMr-Yb7G154o8vXIG-167" vertex="1">
          <mxGeometry y="131.73333333333335" width="600" height="30" as="geometry" />
        </mxCell>
        <mxCell id="IS7KMr-Yb7G154o8vXIG-173" value="+deleteHotel(id) : Promise&lt;boolean&gt;" style="text;strokeColor=none;fillColor=none;align=left;verticalAlign=top;spacingLeft=4;spacingRight=4;overflow=hidden;rotatable=0;points=[[0,0.5],[1,0.5]];portConstraint=eastwest;" parent="IS7KMr-Yb7G154o8vXIG-167" vertex="1">
          <mxGeometry y="161.73333333333335" width="600" height="30" as="geometry" />
        </mxCell>
        <mxCell id="IS7KMr-Yb7G154o8vXIG-174" value="+getAvailableRooms(hotelId, startDate, endDate) : Promise&lt;Room[]&gt;" style="text;strokeColor=none;fillColor=none;align=left;verticalAlign=top;spacingLeft=4;spacingRight=4;overflow=hidden;rotatable=0;points=[[0,0.5],[1,0.5]];portConstraint=eastwest;" parent="IS7KMr-Yb7G154o8vXIG-167" vertex="1">
          <mxGeometry y="191.73333333333335" width="600" height="30" as="geometry" />
        </mxCell>
        <mxCell id="IS7KMr-Yb7G154o8vXIG-175" value="RoomService" style="swimlane;fontStyle=1;align=center;verticalAlign=top;childLayout=stackLayout;horizontal=1;startSize=31.733333333333334;horizontalStack=0;resizeParent=1;resizeParentMax=0;resizeLast=0;collapsible=0;marginBottom=0;" parent="1" vertex="1">
          <mxGeometry x="3360" y="2510" width="550" height="221.73333333333335" as="geometry" />
        </mxCell>
        <mxCell id="IS7KMr-Yb7G154o8vXIG-176" style="line;strokeWidth=1;fillColor=none;align=left;verticalAlign=middle;spacingTop=-1;spacingLeft=3;spacingRight=3;rotatable=0;labelPosition=right;points=[];portConstraint=eastwest;strokeColor=inherit;" parent="IS7KMr-Yb7G154o8vXIG-175" vertex="1">
          <mxGeometry y="31.733333333333334" width="550" height="10" as="geometry" />
        </mxCell>
        <mxCell id="IS7KMr-Yb7G154o8vXIG-177" value="+createRoom(roomData) : Promise&lt;Room&gt;" style="text;strokeColor=none;fillColor=none;align=left;verticalAlign=top;spacingLeft=4;spacingRight=4;overflow=hidden;rotatable=0;points=[[0,0.5],[1,0.5]];portConstraint=eastwest;" parent="IS7KMr-Yb7G154o8vXIG-175" vertex="1">
          <mxGeometry y="41.733333333333334" width="550" height="30" as="geometry" />
        </mxCell>
        <mxCell id="IS7KMr-Yb7G154o8vXIG-178" value="+updateRoom(id, data) : Promise&lt;Room&gt;" style="text;strokeColor=none;fillColor=none;align=left;verticalAlign=top;spacingLeft=4;spacingRight=4;overflow=hidden;rotatable=0;points=[[0,0.5],[1,0.5]];portConstraint=eastwest;" parent="IS7KMr-Yb7G154o8vXIG-175" vertex="1">
          <mxGeometry y="71.73333333333333" width="550" height="30" as="geometry" />
        </mxCell>
        <mxCell id="IS7KMr-Yb7G154o8vXIG-179" value="+deleteRoom(id) : Promise&lt;boolean&gt;" style="text;strokeColor=none;fillColor=none;align=left;verticalAlign=top;spacingLeft=4;spacingRight=4;overflow=hidden;rotatable=0;points=[[0,0.5],[1,0.5]];portConstraint=eastwest;" parent="IS7KMr-Yb7G154o8vXIG-175" vertex="1">
          <mxGeometry y="101.73333333333333" width="550" height="30" as="geometry" />
        </mxCell>
        <mxCell id="IS7KMr-Yb7G154o8vXIG-180" value="+getRoomById(id) : Promise&lt;Room&gt;" style="text;strokeColor=none;fillColor=none;align=left;verticalAlign=top;spacingLeft=4;spacingRight=4;overflow=hidden;rotatable=0;points=[[0,0.5],[1,0.5]];portConstraint=eastwest;" parent="IS7KMr-Yb7G154o8vXIG-175" vertex="1">
          <mxGeometry y="131.73333333333335" width="550" height="30" as="geometry" />
        </mxCell>
        <mxCell id="IS7KMr-Yb7G154o8vXIG-181" value="+getRoomsByHotel(hotelId) : Promise&lt;Room[]&gt;" style="text;strokeColor=none;fillColor=none;align=left;verticalAlign=top;spacingLeft=4;spacingRight=4;overflow=hidden;rotatable=0;points=[[0,0.5],[1,0.5]];portConstraint=eastwest;" parent="IS7KMr-Yb7G154o8vXIG-175" vertex="1">
          <mxGeometry y="161.73333333333335" width="550" height="30" as="geometry" />
        </mxCell>
        <mxCell id="IS7KMr-Yb7G154o8vXIG-182" value="+checkAvailability(roomId, startDate, endDate) : Promise&lt;boolean&gt;" style="text;strokeColor=none;fillColor=none;align=left;verticalAlign=top;spacingLeft=4;spacingRight=4;overflow=hidden;rotatable=0;points=[[0,0.5],[1,0.5]];portConstraint=eastwest;" parent="IS7KMr-Yb7G154o8vXIG-175" vertex="1">
          <mxGeometry y="191.73333333333335" width="550" height="30" as="geometry" />
        </mxCell>
        <mxCell id="IS7KMr-Yb7G154o8vXIG-183" value="ReservationService" style="swimlane;fontStyle=1;align=center;verticalAlign=top;childLayout=stackLayout;horizontal=1;startSize=31.733333333333334;horizontalStack=0;resizeParent=1;resizeParentMax=0;resizeLast=0;collapsible=0;marginBottom=0;" parent="1" vertex="1">
          <mxGeometry x="830" y="4090" width="590" height="221.73333333333335" as="geometry" />
        </mxCell>
        <mxCell id="IS7KMr-Yb7G154o8vXIG-184" style="line;strokeWidth=1;fillColor=none;align=left;verticalAlign=middle;spacingTop=-1;spacingLeft=3;spacingRight=3;rotatable=0;labelPosition=right;points=[];portConstraint=eastwest;strokeColor=inherit;" parent="IS7KMr-Yb7G154o8vXIG-183" vertex="1">
          <mxGeometry y="31.733333333333334" width="590" height="10" as="geometry" />
        </mxCell>
        <mxCell id="IS7KMr-Yb7G154o8vXIG-185" value="+createReservation(reservationData) : Promise&lt;Reservation&gt;" style="text;strokeColor=none;fillColor=none;align=left;verticalAlign=top;spacingLeft=4;spacingRight=4;overflow=hidden;rotatable=0;points=[[0,0.5],[1,0.5]];portConstraint=eastwest;" parent="IS7KMr-Yb7G154o8vXIG-183" vertex="1">
          <mxGeometry y="41.733333333333334" width="590" height="30" as="geometry" />
        </mxCell>
        <mxCell id="IS7KMr-Yb7G154o8vXIG-186" value="+updateStatus(id, status) : Promise&lt;Reservation&gt;" style="text;strokeColor=none;fillColor=none;align=left;verticalAlign=top;spacingLeft=4;spacingRight=4;overflow=hidden;rotatable=0;points=[[0,0.5],[1,0.5]];portConstraint=eastwest;" parent="IS7KMr-Yb7G154o8vXIG-183" vertex="1">
          <mxGeometry y="71.73333333333333" width="590" height="30" as="geometry" />
        </mxCell>
        <mxCell id="IS7KMr-Yb7G154o8vXIG-187" value="+getReservationById(id) : Promise&lt;Reservation&gt;" style="text;strokeColor=none;fillColor=none;align=left;verticalAlign=top;spacingLeft=4;spacingRight=4;overflow=hidden;rotatable=0;points=[[0,0.5],[1,0.5]];portConstraint=eastwest;" parent="IS7KMr-Yb7G154o8vXIG-183" vertex="1">
          <mxGeometry y="101.73333333333333" width="590" height="30" as="geometry" />
        </mxCell>
        <mxCell id="IS7KMr-Yb7G154o8vXIG-188" value="+getReservationsByCustomer(customerId) : Promise&lt;Reservation[]&gt;" style="text;strokeColor=none;fillColor=none;align=left;verticalAlign=top;spacingLeft=4;spacingRight=4;overflow=hidden;rotatable=0;points=[[0,0.5],[1,0.5]];portConstraint=eastwest;" parent="IS7KMr-Yb7G154o8vXIG-183" vertex="1">
          <mxGeometry y="131.73333333333335" width="590" height="30" as="geometry" />
        </mxCell>
        <mxCell id="IS7KMr-Yb7G154o8vXIG-189" value="+getReservationsByHotel(hotelId) : Promise&lt;Reservation[]&gt;" style="text;strokeColor=none;fillColor=none;align=left;verticalAlign=top;spacingLeft=4;spacingRight=4;overflow=hidden;rotatable=0;points=[[0,0.5],[1,0.5]];portConstraint=eastwest;" parent="IS7KMr-Yb7G154o8vXIG-183" vertex="1">
          <mxGeometry y="161.73333333333335" width="590" height="30" as="geometry" />
        </mxCell>
        <mxCell id="IS7KMr-Yb7G154o8vXIG-190" value="+cancelReservation(id) : Promise&lt;boolean&gt;" style="text;strokeColor=none;fillColor=none;align=left;verticalAlign=top;spacingLeft=4;spacingRight=4;overflow=hidden;rotatable=0;points=[[0,0.5],[1,0.5]];portConstraint=eastwest;" parent="IS7KMr-Yb7G154o8vXIG-183" vertex="1">
          <mxGeometry y="191.73333333333335" width="590" height="30" as="geometry" />
        </mxCell>
        <mxCell id="IS7KMr-Yb7G154o8vXIG-191" value="PaymentService" style="swimlane;fontStyle=1;align=center;verticalAlign=top;childLayout=stackLayout;horizontal=1;startSize=34.54545454545455;horizontalStack=0;resizeParent=1;resizeParentMax=0;resizeLast=0;collapsible=0;marginBottom=0;" parent="1" vertex="1">
          <mxGeometry x="1720" y="1800" width="560" height="204.54545454545456" as="geometry" />
        </mxCell>
        <mxCell id="IS7KMr-Yb7G154o8vXIG-192" style="line;strokeWidth=1;fillColor=none;align=left;verticalAlign=middle;spacingTop=-1;spacingLeft=3;spacingRight=3;rotatable=0;labelPosition=right;points=[];portConstraint=eastwest;strokeColor=inherit;" parent="IS7KMr-Yb7G154o8vXIG-191" vertex="1">
          <mxGeometry y="34.54545454545455" width="560" height="10" as="geometry" />
        </mxCell>
        <mxCell id="IS7KMr-Yb7G154o8vXIG-193" value="+processPayment(paymentData) : Promise&lt;Payment&gt;" style="text;strokeColor=none;fillColor=none;align=left;verticalAlign=top;spacingLeft=4;spacingRight=4;overflow=hidden;rotatable=0;points=[[0,0.5],[1,0.5]];portConstraint=eastwest;" parent="IS7KMr-Yb7G154o8vXIG-191" vertex="1">
          <mxGeometry y="44.54545454545455" width="560" height="40" as="geometry" />
        </mxCell>
        <mxCell id="IS7KMr-Yb7G154o8vXIG-194" value="+refundPayment(paymentId) : Promise&lt;Payment&gt;" style="text;strokeColor=none;fillColor=none;align=left;verticalAlign=top;spacingLeft=4;spacingRight=4;overflow=hidden;rotatable=0;points=[[0,0.5],[1,0.5]];portConstraint=eastwest;" parent="IS7KMr-Yb7G154o8vXIG-191" vertex="1">
          <mxGeometry y="84.54545454545455" width="560" height="40" as="geometry" />
        </mxCell>
        <mxCell id="IS7KMr-Yb7G154o8vXIG-195" value="+getPaymentById(id) : Promise&lt;Payment&gt;" style="text;strokeColor=none;fillColor=none;align=left;verticalAlign=top;spacingLeft=4;spacingRight=4;overflow=hidden;rotatable=0;points=[[0,0.5],[1,0.5]];portConstraint=eastwest;" parent="IS7KMr-Yb7G154o8vXIG-191" vertex="1">
          <mxGeometry y="124.54545454545455" width="560" height="40" as="geometry" />
        </mxCell>
        <mxCell id="IS7KMr-Yb7G154o8vXIG-196" value="+getPaymentsByReservation(reservationId) : Promise&lt;Payment[]&gt;" style="text;strokeColor=none;fillColor=none;align=left;verticalAlign=top;spacingLeft=4;spacingRight=4;overflow=hidden;rotatable=0;points=[[0,0.5],[1,0.5]];portConstraint=eastwest;" parent="IS7KMr-Yb7G154o8vXIG-191" vertex="1">
          <mxGeometry y="164.54545454545456" width="560" height="40" as="geometry" />
        </mxCell>
        <mxCell id="IS7KMr-Yb7G154o8vXIG-197" value="ReviewService" style="swimlane;fontStyle=1;align=center;verticalAlign=top;childLayout=stackLayout;horizontal=1;startSize=32.92307692307692;horizontalStack=0;resizeParent=1;resizeParentMax=0;resizeLast=0;collapsible=0;marginBottom=0;" parent="1" vertex="1">
          <mxGeometry x="880" y="3650" width="500" height="192.9230769230769" as="geometry" />
        </mxCell>
        <mxCell id="IS7KMr-Yb7G154o8vXIG-198" style="line;strokeWidth=1;fillColor=none;align=left;verticalAlign=middle;spacingTop=-1;spacingLeft=3;spacingRight=3;rotatable=0;labelPosition=right;points=[];portConstraint=eastwest;strokeColor=inherit;" parent="IS7KMr-Yb7G154o8vXIG-197" vertex="1">
          <mxGeometry y="32.92307692307692" width="500" height="10" as="geometry" />
        </mxCell>
        <mxCell id="IS7KMr-Yb7G154o8vXIG-199" value="+createReview(reviewData) : Promise&lt;Review&gt;" style="text;strokeColor=none;fillColor=none;align=left;verticalAlign=top;spacingLeft=4;spacingRight=4;overflow=hidden;rotatable=0;points=[[0,0.5],[1,0.5]];portConstraint=eastwest;" parent="IS7KMr-Yb7G154o8vXIG-197" vertex="1">
          <mxGeometry y="42.92307692307692" width="500" height="30" as="geometry" />
        </mxCell>
        <mxCell id="IS7KMr-Yb7G154o8vXIG-200" value="+updateReview(id, data) : Promise&lt;Review&gt;" style="text;strokeColor=none;fillColor=none;align=left;verticalAlign=top;spacingLeft=4;spacingRight=4;overflow=hidden;rotatable=0;points=[[0,0.5],[1,0.5]];portConstraint=eastwest;" parent="IS7KMr-Yb7G154o8vXIG-197" vertex="1">
          <mxGeometry y="72.92307692307692" width="500" height="30" as="geometry" />
        </mxCell>
        <mxCell id="IS7KMr-Yb7G154o8vXIG-201" value="+deleteReview(id) : Promise&lt;boolean&gt;" style="text;strokeColor=none;fillColor=none;align=left;verticalAlign=top;spacingLeft=4;spacingRight=4;overflow=hidden;rotatable=0;points=[[0,0.5],[1,0.5]];portConstraint=eastwest;" parent="IS7KMr-Yb7G154o8vXIG-197" vertex="1">
          <mxGeometry y="102.92307692307692" width="500" height="30" as="geometry" />
        </mxCell>
        <mxCell id="IS7KMr-Yb7G154o8vXIG-202" value="+getReviewsByHotel(hotelId) : Promise&lt;Review[]&gt;" style="text;strokeColor=none;fillColor=none;align=left;verticalAlign=top;spacingLeft=4;spacingRight=4;overflow=hidden;rotatable=0;points=[[0,0.5],[1,0.5]];portConstraint=eastwest;" parent="IS7KMr-Yb7G154o8vXIG-197" vertex="1">
          <mxGeometry y="132.9230769230769" width="500" height="30" as="geometry" />
        </mxCell>
        <mxCell id="IS7KMr-Yb7G154o8vXIG-203" value="+getReviewsByCustomer(customerId) : Promise&lt;Review[]&gt;" style="text;strokeColor=none;fillColor=none;align=left;verticalAlign=top;spacingLeft=4;spacingRight=4;overflow=hidden;rotatable=0;points=[[0,0.5],[1,0.5]];portConstraint=eastwest;" parent="IS7KMr-Yb7G154o8vXIG-197" vertex="1">
          <mxGeometry y="162.9230769230769" width="500" height="30" as="geometry" />
        </mxCell>
        <mxCell id="IS7KMr-Yb7G154o8vXIG-204" value="NotificationService" style="swimlane;fontStyle=1;align=center;verticalAlign=top;childLayout=stackLayout;horizontal=1;startSize=32.92307692307692;horizontalStack=0;resizeParent=1;resizeParentMax=0;resizeLast=0;collapsible=0;marginBottom=0;" parent="1" vertex="1">
          <mxGeometry x="830" y="3010" width="580" height="192.9230769230769" as="geometry" />
        </mxCell>
        <mxCell id="IS7KMr-Yb7G154o8vXIG-205" style="line;strokeWidth=1;fillColor=none;align=left;verticalAlign=middle;spacingTop=-1;spacingLeft=3;spacingRight=3;rotatable=0;labelPosition=right;points=[];portConstraint=eastwest;strokeColor=inherit;" parent="IS7KMr-Yb7G154o8vXIG-204" vertex="1">
          <mxGeometry y="32.92307692307692" width="580" height="10" as="geometry" />
        </mxCell>
        <mxCell id="IS7KMr-Yb7G154o8vXIG-206" value="+createNotification(data) : Promise&lt;Notification&gt;" style="text;strokeColor=none;fillColor=none;align=left;verticalAlign=top;spacingLeft=4;spacingRight=4;overflow=hidden;rotatable=0;points=[[0,0.5],[1,0.5]];portConstraint=eastwest;" parent="IS7KMr-Yb7G154o8vXIG-204" vertex="1">
          <mxGeometry y="42.92307692307692" width="580" height="30" as="geometry" />
        </mxCell>
        <mxCell id="IS7KMr-Yb7G154o8vXIG-207" value="+sendEmail(recipient, subject, content) : Promise&lt;boolean&gt;" style="text;strokeColor=none;fillColor=none;align=left;verticalAlign=top;spacingLeft=4;spacingRight=4;overflow=hidden;rotatable=0;points=[[0,0.5],[1,0.5]];portConstraint=eastwest;" parent="IS7KMr-Yb7G154o8vXIG-204" vertex="1">
          <mxGeometry y="72.92307692307692" width="580" height="30" as="geometry" />
        </mxCell>
        <mxCell id="IS7KMr-Yb7G154o8vXIG-208" value="+sendRealTimeNotification(userId, notification) : Promise&lt;boolean&gt;" style="text;strokeColor=none;fillColor=none;align=left;verticalAlign=top;spacingLeft=4;spacingRight=4;overflow=hidden;rotatable=0;points=[[0,0.5],[1,0.5]];portConstraint=eastwest;" parent="IS7KMr-Yb7G154o8vXIG-204" vertex="1">
          <mxGeometry y="102.92307692307692" width="580" height="30" as="geometry" />
        </mxCell>
        <mxCell id="IS7KMr-Yb7G154o8vXIG-209" value="+markAsRead(notificationId) : Promise&lt;Notification&gt;" style="text;strokeColor=none;fillColor=none;align=left;verticalAlign=top;spacingLeft=4;spacingRight=4;overflow=hidden;rotatable=0;points=[[0,0.5],[1,0.5]];portConstraint=eastwest;" parent="IS7KMr-Yb7G154o8vXIG-204" vertex="1">
          <mxGeometry y="132.9230769230769" width="580" height="30" as="geometry" />
        </mxCell>
        <mxCell id="IS7KMr-Yb7G154o8vXIG-210" value="+getUnreadNotifications(userId) : Promise&lt;Notification[]&gt;" style="text;strokeColor=none;fillColor=none;align=left;verticalAlign=top;spacingLeft=4;spacingRight=4;overflow=hidden;rotatable=0;points=[[0,0.5],[1,0.5]];portConstraint=eastwest;" parent="IS7KMr-Yb7G154o8vXIG-204" vertex="1">
          <mxGeometry y="162.9230769230769" width="580" height="30" as="geometry" />
        </mxCell>
        <mxCell id="IS7KMr-Yb7G154o8vXIG-211" value="ReportService" style="swimlane;fontStyle=1;align=center;verticalAlign=top;childLayout=stackLayout;horizontal=1;startSize=36.888888888888886;horizontalStack=0;resizeParent=1;resizeParentMax=0;resizeLast=0;collapsible=0;marginBottom=0;" parent="1" vertex="1">
          <mxGeometry x="2460" y="3710" width="630" height="166.88888888888889" as="geometry" />
        </mxCell>
        <mxCell id="IS7KMr-Yb7G154o8vXIG-212" style="line;strokeWidth=1;fillColor=none;align=left;verticalAlign=middle;spacingTop=-1;spacingLeft=3;spacingRight=3;rotatable=0;labelPosition=right;points=[];portConstraint=eastwest;strokeColor=inherit;" parent="IS7KMr-Yb7G154o8vXIG-211" vertex="1">
          <mxGeometry y="36.888888888888886" width="630" height="10" as="geometry" />
        </mxCell>
        <mxCell id="IS7KMr-Yb7G154o8vXIG-213" value="+generateOccupancyReport(hotelId, startDate, endDate) : Promise&lt;Report&gt;" style="text;strokeColor=none;fillColor=none;align=left;verticalAlign=top;spacingLeft=4;spacingRight=4;overflow=hidden;rotatable=0;points=[[0,0.5],[1,0.5]];portConstraint=eastwest;" parent="IS7KMr-Yb7G154o8vXIG-211" vertex="1">
          <mxGeometry y="46.888888888888886" width="630" height="40" as="geometry" />
        </mxCell>
        <mxCell id="IS7KMr-Yb7G154o8vXIG-214" value="+generateReservationReport(hotelId, startDate, endDate) : Promise&lt;Report&gt;" style="text;strokeColor=none;fillColor=none;align=left;verticalAlign=top;spacingLeft=4;spacingRight=4;overflow=hidden;rotatable=0;points=[[0,0.5],[1,0.5]];portConstraint=eastwest;" parent="IS7KMr-Yb7G154o8vXIG-211" vertex="1">
          <mxGeometry y="86.88888888888889" width="630" height="40" as="geometry" />
        </mxCell>
        <mxCell id="IS7KMr-Yb7G154o8vXIG-215" value="+generateRevenueReport(hotelId, startDate, endDate) : Promise&lt;Report&gt;" style="text;strokeColor=none;fillColor=none;align=left;verticalAlign=top;spacingLeft=4;spacingRight=4;overflow=hidden;rotatable=0;points=[[0,0.5],[1,0.5]];portConstraint=eastwest;" parent="IS7KMr-Yb7G154o8vXIG-211" vertex="1">
          <mxGeometry y="126.88888888888889" width="630" height="40" as="geometry" />
        </mxCell>
        <mxCell id="IS7KMr-Yb7G154o8vXIG-216" value="AuthController" style="swimlane;fontStyle=1;align=center;verticalAlign=top;childLayout=stackLayout;horizontal=1;startSize=34.54545454545455;horizontalStack=0;resizeParent=1;resizeParentMax=0;resizeLast=0;collapsible=0;marginBottom=0;" parent="1" vertex="1">
          <mxGeometry y="1680" width="320" height="204.54545454545456" as="geometry" />
        </mxCell>
        <mxCell id="IS7KMr-Yb7G154o8vXIG-217" style="line;strokeWidth=1;fillColor=none;align=left;verticalAlign=middle;spacingTop=-1;spacingLeft=3;spacingRight=3;rotatable=0;labelPosition=right;points=[];portConstraint=eastwest;strokeColor=inherit;" parent="IS7KMr-Yb7G154o8vXIG-216" vertex="1">
          <mxGeometry y="34.54545454545455" width="320" height="10" as="geometry" />
        </mxCell>
        <mxCell id="IS7KMr-Yb7G154o8vXIG-218" value="+login() : Promise" style="text;strokeColor=none;fillColor=none;align=left;verticalAlign=top;spacingLeft=4;spacingRight=4;overflow=hidden;rotatable=0;points=[[0,0.5],[1,0.5]];portConstraint=eastwest;" parent="IS7KMr-Yb7G154o8vXIG-216" vertex="1">
          <mxGeometry y="44.54545454545455" width="320" height="40" as="geometry" />
        </mxCell>
        <mxCell id="IS7KMr-Yb7G154o8vXIG-219" value="+register() : Promise" style="text;strokeColor=none;fillColor=none;align=left;verticalAlign=top;spacingLeft=4;spacingRight=4;overflow=hidden;rotatable=0;points=[[0,0.5],[1,0.5]];portConstraint=eastwest;" parent="IS7KMr-Yb7G154o8vXIG-216" vertex="1">
          <mxGeometry y="84.54545454545455" width="320" height="40" as="geometry" />
        </mxCell>
        <mxCell id="IS7KMr-Yb7G154o8vXIG-220" value="+logout() : Promise" style="text;strokeColor=none;fillColor=none;align=left;verticalAlign=top;spacingLeft=4;spacingRight=4;overflow=hidden;rotatable=0;points=[[0,0.5],[1,0.5]];portConstraint=eastwest;" parent="IS7KMr-Yb7G154o8vXIG-216" vertex="1">
          <mxGeometry y="124.54545454545455" width="320" height="40" as="geometry" />
        </mxCell>
        <mxCell id="IS7KMr-Yb7G154o8vXIG-221" value="+resetPassword() : Promise" style="text;strokeColor=none;fillColor=none;align=left;verticalAlign=top;spacingLeft=4;spacingRight=4;overflow=hidden;rotatable=0;points=[[0,0.5],[1,0.5]];portConstraint=eastwest;" parent="IS7KMr-Yb7G154o8vXIG-216" vertex="1">
          <mxGeometry y="164.54545454545456" width="320" height="40" as="geometry" />
        </mxCell>
        <mxCell id="IS7KMr-Yb7G154o8vXIG-222" value="UserController" style="swimlane;fontStyle=1;align=center;verticalAlign=top;childLayout=stackLayout;horizontal=1;startSize=40.57142857142857;horizontalStack=0;resizeParent=1;resizeParentMax=0;resizeLast=0;collapsible=0;marginBottom=0;" parent="1" vertex="1">
          <mxGeometry y="2050" width="270" height="130.57142857142856" as="geometry" />
        </mxCell>
        <mxCell id="IS7KMr-Yb7G154o8vXIG-223" style="line;strokeWidth=1;fillColor=none;align=left;verticalAlign=middle;spacingTop=-1;spacingLeft=3;spacingRight=3;rotatable=0;labelPosition=right;points=[];portConstraint=eastwest;strokeColor=inherit;" parent="IS7KMr-Yb7G154o8vXIG-222" vertex="1">
          <mxGeometry y="40.57142857142857" width="270" height="10" as="geometry" />
        </mxCell>
        <mxCell id="IS7KMr-Yb7G154o8vXIG-224" value="+getProfile() : Promise" style="text;strokeColor=none;fillColor=none;align=left;verticalAlign=top;spacingLeft=4;spacingRight=4;overflow=hidden;rotatable=0;points=[[0,0.5],[1,0.5]];portConstraint=eastwest;" parent="IS7KMr-Yb7G154o8vXIG-222" vertex="1">
          <mxGeometry y="50.57142857142857" width="270" height="40" as="geometry" />
        </mxCell>
        <mxCell id="IS7KMr-Yb7G154o8vXIG-225" value="+updateProfile() : Promise" style="text;strokeColor=none;fillColor=none;align=left;verticalAlign=top;spacingLeft=4;spacingRight=4;overflow=hidden;rotatable=0;points=[[0,0.5],[1,0.5]];portConstraint=eastwest;" parent="IS7KMr-Yb7G154o8vXIG-222" vertex="1">
          <mxGeometry y="90.57142857142857" width="270" height="40" as="geometry" />
        </mxCell>
        <mxCell id="IS7KMr-Yb7G154o8vXIG-226" value="HotelController" style="swimlane;fontStyle=1;align=center;verticalAlign=top;childLayout=stackLayout;horizontal=1;startSize=32.92307692307692;horizontalStack=0;resizeParent=1;resizeParentMax=0;resizeLast=0;collapsible=0;marginBottom=0;" parent="1" vertex="1">
          <mxGeometry x="60" y="2520" width="270" height="192.9230769230769" as="geometry" />
        </mxCell>
        <mxCell id="IS7KMr-Yb7G154o8vXIG-227" style="line;strokeWidth=1;fillColor=none;align=left;verticalAlign=middle;spacingTop=-1;spacingLeft=3;spacingRight=3;rotatable=0;labelPosition=right;points=[];portConstraint=eastwest;strokeColor=inherit;" parent="IS7KMr-Yb7G154o8vXIG-226" vertex="1">
          <mxGeometry y="32.92307692307692" width="270" height="10" as="geometry" />
        </mxCell>
        <mxCell id="IS7KMr-Yb7G154o8vXIG-228" value="+getAllHotels() : Promise" style="text;strokeColor=none;fillColor=none;align=left;verticalAlign=top;spacingLeft=4;spacingRight=4;overflow=hidden;rotatable=0;points=[[0,0.5],[1,0.5]];portConstraint=eastwest;" parent="IS7KMr-Yb7G154o8vXIG-226" vertex="1">
          <mxGeometry y="42.92307692307692" width="270" height="30" as="geometry" />
        </mxCell>
        <mxCell id="IS7KMr-Yb7G154o8vXIG-229" value="+getHotelById() : Promise" style="text;strokeColor=none;fillColor=none;align=left;verticalAlign=top;spacingLeft=4;spacingRight=4;overflow=hidden;rotatable=0;points=[[0,0.5],[1,0.5]];portConstraint=eastwest;" parent="IS7KMr-Yb7G154o8vXIG-226" vertex="1">
          <mxGeometry y="72.92307692307692" width="270" height="30" as="geometry" />
        </mxCell>
        <mxCell id="IS7KMr-Yb7G154o8vXIG-230" value="+createHotel() : Promise" style="text;strokeColor=none;fillColor=none;align=left;verticalAlign=top;spacingLeft=4;spacingRight=4;overflow=hidden;rotatable=0;points=[[0,0.5],[1,0.5]];portConstraint=eastwest;" parent="IS7KMr-Yb7G154o8vXIG-226" vertex="1">
          <mxGeometry y="102.92307692307692" width="270" height="30" as="geometry" />
        </mxCell>
        <mxCell id="IS7KMr-Yb7G154o8vXIG-231" value="+updateHotel() : Promise" style="text;strokeColor=none;fillColor=none;align=left;verticalAlign=top;spacingLeft=4;spacingRight=4;overflow=hidden;rotatable=0;points=[[0,0.5],[1,0.5]];portConstraint=eastwest;" parent="IS7KMr-Yb7G154o8vXIG-226" vertex="1">
          <mxGeometry y="132.9230769230769" width="270" height="30" as="geometry" />
        </mxCell>
        <mxCell id="IS7KMr-Yb7G154o8vXIG-232" value="+deleteHotel() : Promise" style="text;strokeColor=none;fillColor=none;align=left;verticalAlign=top;spacingLeft=4;spacingRight=4;overflow=hidden;rotatable=0;points=[[0,0.5],[1,0.5]];portConstraint=eastwest;" parent="IS7KMr-Yb7G154o8vXIG-226" vertex="1">
          <mxGeometry y="162.9230769230769" width="270" height="30" as="geometry" />
        </mxCell>
        <mxCell id="IS7KMr-Yb7G154o8vXIG-233" value="RoomController" style="swimlane;fontStyle=1;align=center;verticalAlign=top;childLayout=stackLayout;horizontal=1;startSize=32.92307692307692;horizontalStack=0;resizeParent=1;resizeParentMax=0;resizeLast=0;collapsible=0;marginBottom=0;" parent="1" vertex="1">
          <mxGeometry x="2840" y="2380" width="310" height="192.9230769230769" as="geometry" />
        </mxCell>
        <mxCell id="IS7KMr-Yb7G154o8vXIG-234" style="line;strokeWidth=1;fillColor=none;align=left;verticalAlign=middle;spacingTop=-1;spacingLeft=3;spacingRight=3;rotatable=0;labelPosition=right;points=[];portConstraint=eastwest;strokeColor=inherit;" parent="IS7KMr-Yb7G154o8vXIG-233" vertex="1">
          <mxGeometry y="32.92307692307692" width="310" height="10" as="geometry" />
        </mxCell>
        <mxCell id="IS7KMr-Yb7G154o8vXIG-235" value="+getRoomsByHotel() : Promise" style="text;strokeColor=none;fillColor=none;align=left;verticalAlign=top;spacingLeft=4;spacingRight=4;overflow=hidden;rotatable=0;points=[[0,0.5],[1,0.5]];portConstraint=eastwest;" parent="IS7KMr-Yb7G154o8vXIG-233" vertex="1">
          <mxGeometry y="42.92307692307692" width="310" height="30" as="geometry" />
        </mxCell>
        <mxCell id="IS7KMr-Yb7G154o8vXIG-236" value="+createRoom() : Promise" style="text;strokeColor=none;fillColor=none;align=left;verticalAlign=top;spacingLeft=4;spacingRight=4;overflow=hidden;rotatable=0;points=[[0,0.5],[1,0.5]];portConstraint=eastwest;" parent="IS7KMr-Yb7G154o8vXIG-233" vertex="1">
          <mxGeometry y="72.92307692307692" width="310" height="30" as="geometry" />
        </mxCell>
        <mxCell id="IS7KMr-Yb7G154o8vXIG-237" value="+updateRoom() : Promise" style="text;strokeColor=none;fillColor=none;align=left;verticalAlign=top;spacingLeft=4;spacingRight=4;overflow=hidden;rotatable=0;points=[[0,0.5],[1,0.5]];portConstraint=eastwest;" parent="IS7KMr-Yb7G154o8vXIG-233" vertex="1">
          <mxGeometry y="102.92307692307692" width="310" height="30" as="geometry" />
        </mxCell>
        <mxCell id="IS7KMr-Yb7G154o8vXIG-238" value="+deleteRoom() : Promise" style="text;strokeColor=none;fillColor=none;align=left;verticalAlign=top;spacingLeft=4;spacingRight=4;overflow=hidden;rotatable=0;points=[[0,0.5],[1,0.5]];portConstraint=eastwest;" parent="IS7KMr-Yb7G154o8vXIG-233" vertex="1">
          <mxGeometry y="132.9230769230769" width="310" height="30" as="geometry" />
        </mxCell>
        <mxCell id="IS7KMr-Yb7G154o8vXIG-239" value="+checkAvailability() : Promise" style="text;strokeColor=none;fillColor=none;align=left;verticalAlign=top;spacingLeft=4;spacingRight=4;overflow=hidden;rotatable=0;points=[[0,0.5],[1,0.5]];portConstraint=eastwest;" parent="IS7KMr-Yb7G154o8vXIG-233" vertex="1">
          <mxGeometry y="162.9230769230769" width="310" height="30" as="geometry" />
        </mxCell>
        <mxCell id="IS7KMr-Yb7G154o8vXIG-240" value="ReservationController" style="swimlane;fontStyle=1;align=center;verticalAlign=top;childLayout=stackLayout;horizontal=1;startSize=34.54545454545455;horizontalStack=0;resizeParent=1;resizeParentMax=0;resizeLast=0;collapsible=0;marginBottom=0;" parent="1" vertex="1">
          <mxGeometry x="30" y="4350" width="330" height="204.54545454545456" as="geometry" />
        </mxCell>
        <mxCell id="IS7KMr-Yb7G154o8vXIG-241" style="line;strokeWidth=1;fillColor=none;align=left;verticalAlign=middle;spacingTop=-1;spacingLeft=3;spacingRight=3;rotatable=0;labelPosition=right;points=[];portConstraint=eastwest;strokeColor=inherit;" parent="IS7KMr-Yb7G154o8vXIG-240" vertex="1">
          <mxGeometry y="34.54545454545455" width="330" height="10" as="geometry" />
        </mxCell>
        <mxCell id="IS7KMr-Yb7G154o8vXIG-242" value="+createReservation() : Promise" style="text;strokeColor=none;fillColor=none;align=left;verticalAlign=top;spacingLeft=4;spacingRight=4;overflow=hidden;rotatable=0;points=[[0,0.5],[1,0.5]];portConstraint=eastwest;" parent="IS7KMr-Yb7G154o8vXIG-240" vertex="1">
          <mxGeometry y="44.54545454545455" width="330" height="40" as="geometry" />
        </mxCell>
        <mxCell id="IS7KMr-Yb7G154o8vXIG-243" value="+getReservations() : Promise" style="text;strokeColor=none;fillColor=none;align=left;verticalAlign=top;spacingLeft=4;spacingRight=4;overflow=hidden;rotatable=0;points=[[0,0.5],[1,0.5]];portConstraint=eastwest;" parent="IS7KMr-Yb7G154o8vXIG-240" vertex="1">
          <mxGeometry y="84.54545454545455" width="330" height="40" as="geometry" />
        </mxCell>
        <mxCell id="IS7KMr-Yb7G154o8vXIG-244" value="+updateStatus() : Promise" style="text;strokeColor=none;fillColor=none;align=left;verticalAlign=top;spacingLeft=4;spacingRight=4;overflow=hidden;rotatable=0;points=[[0,0.5],[1,0.5]];portConstraint=eastwest;" parent="IS7KMr-Yb7G154o8vXIG-240" vertex="1">
          <mxGeometry y="124.54545454545455" width="330" height="40" as="geometry" />
        </mxCell>
        <mxCell id="IS7KMr-Yb7G154o8vXIG-245" value="+cancelReservation() : Promise" style="text;strokeColor=none;fillColor=none;align=left;verticalAlign=top;spacingLeft=4;spacingRight=4;overflow=hidden;rotatable=0;points=[[0,0.5],[1,0.5]];portConstraint=eastwest;" parent="IS7KMr-Yb7G154o8vXIG-240" vertex="1">
          <mxGeometry y="164.54545454545456" width="330" height="40" as="geometry" />
        </mxCell>
        <mxCell id="IS7KMr-Yb7G154o8vXIG-246" value="PaymentController" style="swimlane;fontStyle=1;align=center;verticalAlign=top;childLayout=stackLayout;horizontal=1;startSize=36.888888888888886;horizontalStack=0;resizeParent=1;resizeParentMax=0;resizeLast=0;collapsible=0;marginBottom=0;" parent="1" vertex="1">
          <mxGeometry x="1200" y="1680" width="320" height="166.88888888888889" as="geometry" />
        </mxCell>
        <mxCell id="IS7KMr-Yb7G154o8vXIG-247" style="line;strokeWidth=1;fillColor=none;align=left;verticalAlign=middle;spacingTop=-1;spacingLeft=3;spacingRight=3;rotatable=0;labelPosition=right;points=[];portConstraint=eastwest;strokeColor=inherit;" parent="IS7KMr-Yb7G154o8vXIG-246" vertex="1">
          <mxGeometry y="36.888888888888886" width="320" height="10" as="geometry" />
        </mxCell>
        <mxCell id="IS7KMr-Yb7G154o8vXIG-248" value="+processPayment() : Promise" style="text;strokeColor=none;fillColor=none;align=left;verticalAlign=top;spacingLeft=4;spacingRight=4;overflow=hidden;rotatable=0;points=[[0,0.5],[1,0.5]];portConstraint=eastwest;" parent="IS7KMr-Yb7G154o8vXIG-246" vertex="1">
          <mxGeometry y="46.888888888888886" width="320" height="40" as="geometry" />
        </mxCell>
        <mxCell id="IS7KMr-Yb7G154o8vXIG-249" value="+refundPayment() : Promise" style="text;strokeColor=none;fillColor=none;align=left;verticalAlign=top;spacingLeft=4;spacingRight=4;overflow=hidden;rotatable=0;points=[[0,0.5],[1,0.5]];portConstraint=eastwest;" parent="IS7KMr-Yb7G154o8vXIG-246" vertex="1">
          <mxGeometry y="86.88888888888889" width="320" height="40" as="geometry" />
        </mxCell>
        <mxCell id="IS7KMr-Yb7G154o8vXIG-250" value="+getPaymentDetails() : Promise" style="text;strokeColor=none;fillColor=none;align=left;verticalAlign=top;spacingLeft=4;spacingRight=4;overflow=hidden;rotatable=0;points=[[0,0.5],[1,0.5]];portConstraint=eastwest;" parent="IS7KMr-Yb7G154o8vXIG-246" vertex="1">
          <mxGeometry y="126.88888888888889" width="320" height="40" as="geometry" />
        </mxCell>
        <mxCell id="IS7KMr-Yb7G154o8vXIG-251" value="ReviewController" style="swimlane;fontStyle=1;align=center;verticalAlign=top;childLayout=stackLayout;horizontal=1;startSize=34.54545454545455;horizontalStack=0;resizeParent=1;resizeParentMax=0;resizeLast=0;collapsible=0;marginBottom=0;" parent="1" vertex="1">
          <mxGeometry x="50" y="3480" width="280" height="204.54545454545456" as="geometry" />
        </mxCell>
        <mxCell id="IS7KMr-Yb7G154o8vXIG-252" style="line;strokeWidth=1;fillColor=none;align=left;verticalAlign=middle;spacingTop=-1;spacingLeft=3;spacingRight=3;rotatable=0;labelPosition=right;points=[];portConstraint=eastwest;strokeColor=inherit;" parent="IS7KMr-Yb7G154o8vXIG-251" vertex="1">
          <mxGeometry y="34.54545454545455" width="280" height="10" as="geometry" />
        </mxCell>
        <mxCell id="IS7KMr-Yb7G154o8vXIG-253" value="+createReview() : Promise" style="text;strokeColor=none;fillColor=none;align=left;verticalAlign=top;spacingLeft=4;spacingRight=4;overflow=hidden;rotatable=0;points=[[0,0.5],[1,0.5]];portConstraint=eastwest;" parent="IS7KMr-Yb7G154o8vXIG-251" vertex="1">
          <mxGeometry y="44.54545454545455" width="280" height="40" as="geometry" />
        </mxCell>
        <mxCell id="IS7KMr-Yb7G154o8vXIG-254" value="+updateReview() : Promise" style="text;strokeColor=none;fillColor=none;align=left;verticalAlign=top;spacingLeft=4;spacingRight=4;overflow=hidden;rotatable=0;points=[[0,0.5],[1,0.5]];portConstraint=eastwest;" parent="IS7KMr-Yb7G154o8vXIG-251" vertex="1">
          <mxGeometry y="84.54545454545455" width="280" height="40" as="geometry" />
        </mxCell>
        <mxCell id="IS7KMr-Yb7G154o8vXIG-255" value="+deleteReview() : Promise" style="text;strokeColor=none;fillColor=none;align=left;verticalAlign=top;spacingLeft=4;spacingRight=4;overflow=hidden;rotatable=0;points=[[0,0.5],[1,0.5]];portConstraint=eastwest;" parent="IS7KMr-Yb7G154o8vXIG-251" vertex="1">
          <mxGeometry y="124.54545454545455" width="280" height="40" as="geometry" />
        </mxCell>
        <mxCell id="IS7KMr-Yb7G154o8vXIG-256" value="+getReviews() : Promise" style="text;strokeColor=none;fillColor=none;align=left;verticalAlign=top;spacingLeft=4;spacingRight=4;overflow=hidden;rotatable=0;points=[[0,0.5],[1,0.5]];portConstraint=eastwest;" parent="IS7KMr-Yb7G154o8vXIG-251" vertex="1">
          <mxGeometry y="164.54545454545456" width="280" height="40" as="geometry" />
        </mxCell>
        <mxCell id="IS7KMr-Yb7G154o8vXIG-257" value="NotificationController" style="swimlane;fontStyle=1;align=center;verticalAlign=top;childLayout=stackLayout;horizontal=1;startSize=40.57142857142857;horizontalStack=0;resizeParent=1;resizeParentMax=0;resizeLast=0;collapsible=0;marginBottom=0;" parent="1" vertex="1">
          <mxGeometry x="40" y="2290" width="310" height="130.57142857142856" as="geometry" />
        </mxCell>
        <mxCell id="IS7KMr-Yb7G154o8vXIG-258" style="line;strokeWidth=1;fillColor=none;align=left;verticalAlign=middle;spacingTop=-1;spacingLeft=3;spacingRight=3;rotatable=0;labelPosition=right;points=[];portConstraint=eastwest;strokeColor=inherit;" parent="IS7KMr-Yb7G154o8vXIG-257" vertex="1">
          <mxGeometry y="40.57142857142857" width="310" height="10" as="geometry" />
        </mxCell>
        <mxCell id="IS7KMr-Yb7G154o8vXIG-259" value="+getNotifications() : Promise" style="text;strokeColor=none;fillColor=none;align=left;verticalAlign=top;spacingLeft=4;spacingRight=4;overflow=hidden;rotatable=0;points=[[0,0.5],[1,0.5]];portConstraint=eastwest;" parent="IS7KMr-Yb7G154o8vXIG-257" vertex="1">
          <mxGeometry y="50.57142857142857" width="310" height="40" as="geometry" />
        </mxCell>
        <mxCell id="IS7KMr-Yb7G154o8vXIG-260" value="+markAsRead() : Promise" style="text;strokeColor=none;fillColor=none;align=left;verticalAlign=top;spacingLeft=4;spacingRight=4;overflow=hidden;rotatable=0;points=[[0,0.5],[1,0.5]];portConstraint=eastwest;" parent="IS7KMr-Yb7G154o8vXIG-257" vertex="1">
          <mxGeometry y="90.57142857142857" width="310" height="40" as="geometry" />
        </mxCell>
        <mxCell id="IS7KMr-Yb7G154o8vXIG-261" value="ReportController" style="swimlane;fontStyle=1;align=center;verticalAlign=top;childLayout=stackLayout;horizontal=1;startSize=40.57142857142857;horizontalStack=0;resizeParent=1;resizeParentMax=0;resizeLast=0;collapsible=0;marginBottom=0;" parent="1" vertex="1">
          <mxGeometry x="1810" y="4050" width="290" height="130.57142857142856" as="geometry" />
        </mxCell>
        <mxCell id="IS7KMr-Yb7G154o8vXIG-262" style="line;strokeWidth=1;fillColor=none;align=left;verticalAlign=middle;spacingTop=-1;spacingLeft=3;spacingRight=3;rotatable=0;labelPosition=right;points=[];portConstraint=eastwest;strokeColor=inherit;" parent="IS7KMr-Yb7G154o8vXIG-261" vertex="1">
          <mxGeometry y="40.57142857142857" width="290" height="10" as="geometry" />
        </mxCell>
        <mxCell id="IS7KMr-Yb7G154o8vXIG-263" value="+generateReport() : Promise" style="text;strokeColor=none;fillColor=none;align=left;verticalAlign=top;spacingLeft=4;spacingRight=4;overflow=hidden;rotatable=0;points=[[0,0.5],[1,0.5]];portConstraint=eastwest;" parent="IS7KMr-Yb7G154o8vXIG-261" vertex="1">
          <mxGeometry y="50.57142857142857" width="290" height="40" as="geometry" />
        </mxCell>
        <mxCell id="IS7KMr-Yb7G154o8vXIG-264" value="+exportReport() : Promise" style="text;strokeColor=none;fillColor=none;align=left;verticalAlign=top;spacingLeft=4;spacingRight=4;overflow=hidden;rotatable=0;points=[[0,0.5],[1,0.5]];portConstraint=eastwest;" parent="IS7KMr-Yb7G154o8vXIG-261" vertex="1">
          <mxGeometry y="90.57142857142857" width="290" height="40" as="geometry" />
        </mxCell>
        <mxCell id="IS7KMr-Yb7G154o8vXIG-265" value="HotelListComponent" style="swimlane;fontStyle=1;align=center;verticalAlign=top;childLayout=stackLayout;horizontal=1;startSize=34.666666666666664;horizontalStack=0;resizeParent=1;resizeParentMax=0;resizeLast=0;collapsible=0;marginBottom=0;" parent="1" vertex="1">
          <mxGeometry x="50" y="2820" width="300" height="244.66666666666666" as="geometry" />
        </mxCell>
        <mxCell id="IS7KMr-Yb7G154o8vXIG-266" value="+hotels: Hotel[]" style="text;strokeColor=none;fillColor=none;align=left;verticalAlign=top;spacingLeft=4;spacingRight=4;overflow=hidden;rotatable=0;points=[[0,0.5],[1,0.5]];portConstraint=eastwest;" parent="IS7KMr-Yb7G154o8vXIG-265" vertex="1">
          <mxGeometry y="34.666666666666664" width="300" height="40" as="geometry" />
        </mxCell>
        <mxCell id="IS7KMr-Yb7G154o8vXIG-267" value="+filters: Object" style="text;strokeColor=none;fillColor=none;align=left;verticalAlign=top;spacingLeft=4;spacingRight=4;overflow=hidden;rotatable=0;points=[[0,0.5],[1,0.5]];portConstraint=eastwest;" parent="IS7KMr-Yb7G154o8vXIG-265" vertex="1">
          <mxGeometry y="74.66666666666666" width="300" height="40" as="geometry" />
        </mxCell>
        <mxCell id="IS7KMr-Yb7G154o8vXIG-268" style="line;strokeWidth=1;fillColor=none;align=left;verticalAlign=middle;spacingTop=-1;spacingLeft=3;spacingRight=3;rotatable=0;labelPosition=right;points=[];portConstraint=eastwest;strokeColor=inherit;" parent="IS7KMr-Yb7G154o8vXIG-265" vertex="1">
          <mxGeometry y="114.66666666666666" width="300" height="10" as="geometry" />
        </mxCell>
        <mxCell id="IS7KMr-Yb7G154o8vXIG-269" value="+searchHotels() : void" style="text;strokeColor=none;fillColor=none;align=left;verticalAlign=top;spacingLeft=4;spacingRight=4;overflow=hidden;rotatable=0;points=[[0,0.5],[1,0.5]];portConstraint=eastwest;" parent="IS7KMr-Yb7G154o8vXIG-265" vertex="1">
          <mxGeometry y="124.66666666666666" width="300" height="40" as="geometry" />
        </mxCell>
        <mxCell id="IS7KMr-Yb7G154o8vXIG-270" value="+applyFilters() : void" style="text;strokeColor=none;fillColor=none;align=left;verticalAlign=top;spacingLeft=4;spacingRight=4;overflow=hidden;rotatable=0;points=[[0,0.5],[1,0.5]];portConstraint=eastwest;" parent="IS7KMr-Yb7G154o8vXIG-265" vertex="1">
          <mxGeometry y="164.66666666666666" width="300" height="40" as="geometry" />
        </mxCell>
        <mxCell id="IS7KMr-Yb7G154o8vXIG-271" value="+viewHotelDetails(id) : void" style="text;strokeColor=none;fillColor=none;align=left;verticalAlign=top;spacingLeft=4;spacingRight=4;overflow=hidden;rotatable=0;points=[[0,0.5],[1,0.5]];portConstraint=eastwest;" parent="IS7KMr-Yb7G154o8vXIG-265" vertex="1">
          <mxGeometry y="204.66666666666666" width="300" height="40" as="geometry" />
        </mxCell>
        <mxCell id="IS7KMr-Yb7G154o8vXIG-272" value="HotelDetailComponent" style="swimlane;fontStyle=1;align=center;verticalAlign=top;childLayout=stackLayout;horizontal=1;startSize=33.142857142857146;horizontalStack=0;resizeParent=1;resizeParentMax=0;resizeLast=0;collapsible=0;marginBottom=0;" parent="1" vertex="1">
          <mxGeometry x="40" y="3140" width="310" height="223.14285714285714" as="geometry" />
        </mxCell>
        <mxCell id="IS7KMr-Yb7G154o8vXIG-273" value="+hotel: Hotel" style="text;strokeColor=none;fillColor=none;align=left;verticalAlign=top;spacingLeft=4;spacingRight=4;overflow=hidden;rotatable=0;points=[[0,0.5],[1,0.5]];portConstraint=eastwest;" parent="IS7KMr-Yb7G154o8vXIG-272" vertex="1">
          <mxGeometry y="33.142857142857146" width="310" height="30" as="geometry" />
        </mxCell>
        <mxCell id="IS7KMr-Yb7G154o8vXIG-274" value="+rooms: Room[]" style="text;strokeColor=none;fillColor=none;align=left;verticalAlign=top;spacingLeft=4;spacingRight=4;overflow=hidden;rotatable=0;points=[[0,0.5],[1,0.5]];portConstraint=eastwest;" parent="IS7KMr-Yb7G154o8vXIG-272" vertex="1">
          <mxGeometry y="63.142857142857146" width="310" height="30" as="geometry" />
        </mxCell>
        <mxCell id="IS7KMr-Yb7G154o8vXIG-275" value="+reviews: Review[]" style="text;strokeColor=none;fillColor=none;align=left;verticalAlign=top;spacingLeft=4;spacingRight=4;overflow=hidden;rotatable=0;points=[[0,0.5],[1,0.5]];portConstraint=eastwest;" parent="IS7KMr-Yb7G154o8vXIG-272" vertex="1">
          <mxGeometry y="93.14285714285714" width="310" height="30" as="geometry" />
        </mxCell>
        <mxCell id="IS7KMr-Yb7G154o8vXIG-276" style="line;strokeWidth=1;fillColor=none;align=left;verticalAlign=middle;spacingTop=-1;spacingLeft=3;spacingRight=3;rotatable=0;labelPosition=right;points=[];portConstraint=eastwest;strokeColor=inherit;" parent="IS7KMr-Yb7G154o8vXIG-272" vertex="1">
          <mxGeometry y="123.14285714285714" width="310" height="10" as="geometry" />
        </mxCell>
        <mxCell id="IS7KMr-Yb7G154o8vXIG-277" value="+viewRoomDetails(id) : void" style="text;strokeColor=none;fillColor=none;align=left;verticalAlign=top;spacingLeft=4;spacingRight=4;overflow=hidden;rotatable=0;points=[[0,0.5],[1,0.5]];portConstraint=eastwest;" parent="IS7KMr-Yb7G154o8vXIG-272" vertex="1">
          <mxGeometry y="133.14285714285714" width="310" height="30" as="geometry" />
        </mxCell>
        <mxCell id="IS7KMr-Yb7G154o8vXIG-278" value="+makeReservation(id) : void" style="text;strokeColor=none;fillColor=none;align=left;verticalAlign=top;spacingLeft=4;spacingRight=4;overflow=hidden;rotatable=0;points=[[0,0.5],[1,0.5]];portConstraint=eastwest;" parent="IS7KMr-Yb7G154o8vXIG-272" vertex="1">
          <mxGeometry y="163.14285714285714" width="310" height="30" as="geometry" />
        </mxCell>
        <mxCell id="IS7KMr-Yb7G154o8vXIG-279" value="+viewReviews() : void" style="text;strokeColor=none;fillColor=none;align=left;verticalAlign=top;spacingLeft=4;spacingRight=4;overflow=hidden;rotatable=0;points=[[0,0.5],[1,0.5]];portConstraint=eastwest;" parent="IS7KMr-Yb7G154o8vXIG-272" vertex="1">
          <mxGeometry y="193.14285714285714" width="310" height="30" as="geometry" />
        </mxCell>
        <mxCell id="IS7KMr-Yb7G154o8vXIG-280" value="RoomDetailComponent" style="swimlane;fontStyle=1;align=center;verticalAlign=top;childLayout=stackLayout;horizontal=1;startSize=40;horizontalStack=0;resizeParent=1;resizeParentMax=0;resizeLast=0;collapsible=0;marginBottom=0;" parent="1" vertex="1">
          <mxGeometry x="2830" y="2690" width="330" height="170" as="geometry" />
        </mxCell>
        <mxCell id="IS7KMr-Yb7G154o8vXIG-281" value="+room: Room" style="text;strokeColor=none;fillColor=none;align=left;verticalAlign=top;spacingLeft=4;spacingRight=4;overflow=hidden;rotatable=0;points=[[0,0.5],[1,0.5]];portConstraint=eastwest;" parent="IS7KMr-Yb7G154o8vXIG-280" vertex="1">
          <mxGeometry y="40" width="330" height="40" as="geometry" />
        </mxCell>
        <mxCell id="IS7KMr-Yb7G154o8vXIG-282" style="line;strokeWidth=1;fillColor=none;align=left;verticalAlign=middle;spacingTop=-1;spacingLeft=3;spacingRight=3;rotatable=0;labelPosition=right;points=[];portConstraint=eastwest;strokeColor=inherit;" parent="IS7KMr-Yb7G154o8vXIG-280" vertex="1">
          <mxGeometry y="80" width="330" height="10" as="geometry" />
        </mxCell>
        <mxCell id="IS7KMr-Yb7G154o8vXIG-283" value="+checkAvailability(dates) : void" style="text;strokeColor=none;fillColor=none;align=left;verticalAlign=top;spacingLeft=4;spacingRight=4;overflow=hidden;rotatable=0;points=[[0,0.5],[1,0.5]];portConstraint=eastwest;" parent="IS7KMr-Yb7G154o8vXIG-280" vertex="1">
          <mxGeometry y="90" width="330" height="40" as="geometry" />
        </mxCell>
        <mxCell id="IS7KMr-Yb7G154o8vXIG-284" value="+selectRoom() : void" style="text;strokeColor=none;fillColor=none;align=left;verticalAlign=top;spacingLeft=4;spacingRight=4;overflow=hidden;rotatable=0;points=[[0,0.5],[1,0.5]];portConstraint=eastwest;" parent="IS7KMr-Yb7G154o8vXIG-280" vertex="1">
          <mxGeometry y="130" width="330" height="40" as="geometry" />
        </mxCell>
        <mxCell id="IS7KMr-Yb7G154o8vXIG-285" value="ReservationFormComponent" style="swimlane;fontStyle=1;align=center;verticalAlign=top;childLayout=stackLayout;horizontal=1;startSize=34.666666666666664;horizontalStack=0;resizeParent=1;resizeParentMax=0;resizeLast=0;collapsible=0;marginBottom=0;" parent="1" vertex="1">
          <mxGeometry x="970" y="4450" width="330" height="244.66666666666666" as="geometry" />
        </mxCell>
        <mxCell id="IS7KMr-Yb7G154o8vXIG-286" value="+selectedRoom: Room" style="text;strokeColor=none;fillColor=none;align=left;verticalAlign=top;spacingLeft=4;spacingRight=4;overflow=hidden;rotatable=0;points=[[0,0.5],[1,0.5]];portConstraint=eastwest;" parent="IS7KMr-Yb7G154o8vXIG-285" vertex="1">
          <mxGeometry y="34.666666666666664" width="330" height="40" as="geometry" />
        </mxCell>
        <mxCell id="IS7KMr-Yb7G154o8vXIG-287" value="+dates: Object" style="text;strokeColor=none;fillColor=none;align=left;verticalAlign=top;spacingLeft=4;spacingRight=4;overflow=hidden;rotatable=0;points=[[0,0.5],[1,0.5]];portConstraint=eastwest;" parent="IS7KMr-Yb7G154o8vXIG-285" vertex="1">
          <mxGeometry y="74.66666666666666" width="330" height="40" as="geometry" />
        </mxCell>
        <mxCell id="IS7KMr-Yb7G154o8vXIG-288" value="+guestInfo: Object" style="text;strokeColor=none;fillColor=none;align=left;verticalAlign=top;spacingLeft=4;spacingRight=4;overflow=hidden;rotatable=0;points=[[0,0.5],[1,0.5]];portConstraint=eastwest;" parent="IS7KMr-Yb7G154o8vXIG-285" vertex="1">
          <mxGeometry y="114.66666666666666" width="330" height="40" as="geometry" />
        </mxCell>
        <mxCell id="IS7KMr-Yb7G154o8vXIG-289" style="line;strokeWidth=1;fillColor=none;align=left;verticalAlign=middle;spacingTop=-1;spacingLeft=3;spacingRight=3;rotatable=0;labelPosition=right;points=[];portConstraint=eastwest;strokeColor=inherit;" parent="IS7KMr-Yb7G154o8vXIG-285" vertex="1">
          <mxGeometry y="154.66666666666666" width="330" height="10" as="geometry" />
        </mxCell>
        <mxCell id="IS7KMr-Yb7G154o8vXIG-290" value="+createReservation() : void" style="text;strokeColor=none;fillColor=none;align=left;verticalAlign=top;spacingLeft=4;spacingRight=4;overflow=hidden;rotatable=0;points=[[0,0.5],[1,0.5]];portConstraint=eastwest;" parent="IS7KMr-Yb7G154o8vXIG-285" vertex="1">
          <mxGeometry y="164.66666666666666" width="330" height="40" as="geometry" />
        </mxCell>
        <mxCell id="IS7KMr-Yb7G154o8vXIG-291" value="+calculatePrice() : void" style="text;strokeColor=none;fillColor=none;align=left;verticalAlign=top;spacingLeft=4;spacingRight=4;overflow=hidden;rotatable=0;points=[[0,0.5],[1,0.5]];portConstraint=eastwest;" parent="IS7KMr-Yb7G154o8vXIG-285" vertex="1">
          <mxGeometry y="204.66666666666666" width="330" height="40" as="geometry" />
        </mxCell>
        <mxCell id="IS7KMr-Yb7G154o8vXIG-292" value="PaymentFormComponent" style="swimlane;fontStyle=1;align=center;verticalAlign=top;childLayout=stackLayout;horizontal=1;startSize=40;horizontalStack=0;resizeParent=1;resizeParentMax=0;resizeLast=0;collapsible=0;marginBottom=0;" parent="1" vertex="1">
          <mxGeometry x="1210" y="1940" width="310" height="170" as="geometry" />
        </mxCell>
        <mxCell id="IS7KMr-Yb7G154o8vXIG-293" value="+reservation: Reservation" style="text;strokeColor=none;fillColor=none;align=left;verticalAlign=top;spacingLeft=4;spacingRight=4;overflow=hidden;rotatable=0;points=[[0,0.5],[1,0.5]];portConstraint=eastwest;" parent="IS7KMr-Yb7G154o8vXIG-292" vertex="1">
          <mxGeometry y="40" width="310" height="40" as="geometry" />
        </mxCell>
        <mxCell id="IS7KMr-Yb7G154o8vXIG-294" value="+paymentMethods: string[]" style="text;strokeColor=none;fillColor=none;align=left;verticalAlign=top;spacingLeft=4;spacingRight=4;overflow=hidden;rotatable=0;points=[[0,0.5],[1,0.5]];portConstraint=eastwest;" parent="IS7KMr-Yb7G154o8vXIG-292" vertex="1">
          <mxGeometry y="80" width="310" height="40" as="geometry" />
        </mxCell>
        <mxCell id="IS7KMr-Yb7G154o8vXIG-295" style="line;strokeWidth=1;fillColor=none;align=left;verticalAlign=middle;spacingTop=-1;spacingLeft=3;spacingRight=3;rotatable=0;labelPosition=right;points=[];portConstraint=eastwest;strokeColor=inherit;" parent="IS7KMr-Yb7G154o8vXIG-292" vertex="1">
          <mxGeometry y="120" width="310" height="10" as="geometry" />
        </mxCell>
        <mxCell id="IS7KMr-Yb7G154o8vXIG-296" value="+processPayment() : void" style="text;strokeColor=none;fillColor=none;align=left;verticalAlign=top;spacingLeft=4;spacingRight=4;overflow=hidden;rotatable=0;points=[[0,0.5],[1,0.5]];portConstraint=eastwest;" parent="IS7KMr-Yb7G154o8vXIG-292" vertex="1">
          <mxGeometry y="130" width="310" height="40" as="geometry" />
        </mxCell>
        <mxCell id="IS7KMr-Yb7G154o8vXIG-297" value="CustomerDashboardComponent" style="swimlane;fontStyle=1;align=center;verticalAlign=top;childLayout=stackLayout;horizontal=1;startSize=34.666666666666664;horizontalStack=0;resizeParent=1;resizeParentMax=0;resizeLast=0;collapsible=0;marginBottom=0;" parent="1" vertex="1">
          <mxGeometry y="3760" width="390" height="244.66666666666666" as="geometry" />
        </mxCell>
        <mxCell id="IS7KMr-Yb7G154o8vXIG-298" value="+reservations: Reservation[]" style="text;strokeColor=none;fillColor=none;align=left;verticalAlign=top;spacingLeft=4;spacingRight=4;overflow=hidden;rotatable=0;points=[[0,0.5],[1,0.5]];portConstraint=eastwest;" parent="IS7KMr-Yb7G154o8vXIG-297" vertex="1">
          <mxGeometry y="34.666666666666664" width="390" height="40" as="geometry" />
        </mxCell>
        <mxCell id="IS7KMr-Yb7G154o8vXIG-299" value="+notifications: Notification[]" style="text;strokeColor=none;fillColor=none;align=left;verticalAlign=top;spacingLeft=4;spacingRight=4;overflow=hidden;rotatable=0;points=[[0,0.5],[1,0.5]];portConstraint=eastwest;" parent="IS7KMr-Yb7G154o8vXIG-297" vertex="1">
          <mxGeometry y="74.66666666666666" width="390" height="40" as="geometry" />
        </mxCell>
        <mxCell id="IS7KMr-Yb7G154o8vXIG-300" style="line;strokeWidth=1;fillColor=none;align=left;verticalAlign=middle;spacingTop=-1;spacingLeft=3;spacingRight=3;rotatable=0;labelPosition=right;points=[];portConstraint=eastwest;strokeColor=inherit;" parent="IS7KMr-Yb7G154o8vXIG-297" vertex="1">
          <mxGeometry y="114.66666666666666" width="390" height="10" as="geometry" />
        </mxCell>
        <mxCell id="IS7KMr-Yb7G154o8vXIG-301" value="+viewReservationDetails(id) : void" style="text;strokeColor=none;fillColor=none;align=left;verticalAlign=top;spacingLeft=4;spacingRight=4;overflow=hidden;rotatable=0;points=[[0,0.5],[1,0.5]];portConstraint=eastwest;" parent="IS7KMr-Yb7G154o8vXIG-297" vertex="1">
          <mxGeometry y="124.66666666666666" width="390" height="40" as="geometry" />
        </mxCell>
        <mxCell id="IS7KMr-Yb7G154o8vXIG-302" value="+cancelReservation(id) : void" style="text;strokeColor=none;fillColor=none;align=left;verticalAlign=top;spacingLeft=4;spacingRight=4;overflow=hidden;rotatable=0;points=[[0,0.5],[1,0.5]];portConstraint=eastwest;" parent="IS7KMr-Yb7G154o8vXIG-297" vertex="1">
          <mxGeometry y="164.66666666666666" width="390" height="40" as="geometry" />
        </mxCell>
        <mxCell id="IS7KMr-Yb7G154o8vXIG-303" value="+writeReview(id) : void" style="text;strokeColor=none;fillColor=none;align=left;verticalAlign=top;spacingLeft=4;spacingRight=4;overflow=hidden;rotatable=0;points=[[0,0.5],[1,0.5]];portConstraint=eastwest;" parent="IS7KMr-Yb7G154o8vXIG-297" vertex="1">
          <mxGeometry y="204.66666666666666" width="390" height="40" as="geometry" />
        </mxCell>
        <mxCell id="IS7KMr-Yb7G154o8vXIG-304" value="HotelAdminDashboardComponent" style="swimlane;fontStyle=1;align=center;verticalAlign=top;childLayout=stackLayout;horizontal=1;startSize=31.11111111111111;horizontalStack=0;resizeParent=1;resizeParentMax=0;resizeLast=0;collapsible=0;marginBottom=0;" parent="1" vertex="1">
          <mxGeometry x="1770" y="3640" width="370" height="281.1111111111111" as="geometry" />
        </mxCell>
        <mxCell id="IS7KMr-Yb7G154o8vXIG-305" value="+hotels: Hotel[]" style="text;strokeColor=none;fillColor=none;align=left;verticalAlign=top;spacingLeft=4;spacingRight=4;overflow=hidden;rotatable=0;points=[[0,0.5],[1,0.5]];portConstraint=eastwest;" parent="IS7KMr-Yb7G154o8vXIG-304" vertex="1">
          <mxGeometry y="31.11111111111111" width="370" height="30" as="geometry" />
        </mxCell>
        <mxCell id="IS7KMr-Yb7G154o8vXIG-306" value="+reservations: Reservation[]" style="text;strokeColor=none;fillColor=none;align=left;verticalAlign=top;spacingLeft=4;spacingRight=4;overflow=hidden;rotatable=0;points=[[0,0.5],[1,0.5]];portConstraint=eastwest;" parent="IS7KMr-Yb7G154o8vXIG-304" vertex="1">
          <mxGeometry y="61.111111111111114" width="370" height="30" as="geometry" />
        </mxCell>
        <mxCell id="IS7KMr-Yb7G154o8vXIG-307" value="+reports: Report[]" style="text;strokeColor=none;fillColor=none;align=left;verticalAlign=top;spacingLeft=4;spacingRight=4;overflow=hidden;rotatable=0;points=[[0,0.5],[1,0.5]];portConstraint=eastwest;" parent="IS7KMr-Yb7G154o8vXIG-304" vertex="1">
          <mxGeometry y="91.11111111111111" width="370" height="30" as="geometry" />
        </mxCell>
        <mxCell id="IS7KMr-Yb7G154o8vXIG-308" value="+notifications: Notification[]" style="text;strokeColor=none;fillColor=none;align=left;verticalAlign=top;spacingLeft=4;spacingRight=4;overflow=hidden;rotatable=0;points=[[0,0.5],[1,0.5]];portConstraint=eastwest;" parent="IS7KMr-Yb7G154o8vXIG-304" vertex="1">
          <mxGeometry y="121.11111111111111" width="370" height="30" as="geometry" />
        </mxCell>
        <mxCell id="IS7KMr-Yb7G154o8vXIG-309" style="line;strokeWidth=1;fillColor=none;align=left;verticalAlign=middle;spacingTop=-1;spacingLeft=3;spacingRight=3;rotatable=0;labelPosition=right;points=[];portConstraint=eastwest;strokeColor=inherit;" parent="IS7KMr-Yb7G154o8vXIG-304" vertex="1">
          <mxGeometry y="151.11111111111111" width="370" height="10" as="geometry" />
        </mxCell>
        <mxCell id="IS7KMr-Yb7G154o8vXIG-310" value="+manageHotel(id) : void" style="text;strokeColor=none;fillColor=none;align=left;verticalAlign=top;spacingLeft=4;spacingRight=4;overflow=hidden;rotatable=0;points=[[0,0.5],[1,0.5]];portConstraint=eastwest;" parent="IS7KMr-Yb7G154o8vXIG-304" vertex="1">
          <mxGeometry y="161.11111111111111" width="370" height="30" as="geometry" />
        </mxCell>
        <mxCell id="IS7KMr-Yb7G154o8vXIG-311" value="+manageRooms(hotelId) : void" style="text;strokeColor=none;fillColor=none;align=left;verticalAlign=top;spacingLeft=4;spacingRight=4;overflow=hidden;rotatable=0;points=[[0,0.5],[1,0.5]];portConstraint=eastwest;" parent="IS7KMr-Yb7G154o8vXIG-304" vertex="1">
          <mxGeometry y="191.11111111111111" width="370" height="30" as="geometry" />
        </mxCell>
        <mxCell id="IS7KMr-Yb7G154o8vXIG-312" value="+manageReservations() : void" style="text;strokeColor=none;fillColor=none;align=left;verticalAlign=top;spacingLeft=4;spacingRight=4;overflow=hidden;rotatable=0;points=[[0,0.5],[1,0.5]];portConstraint=eastwest;" parent="IS7KMr-Yb7G154o8vXIG-304" vertex="1">
          <mxGeometry y="221.11111111111111" width="370" height="30" as="geometry" />
        </mxCell>
        <mxCell id="IS7KMr-Yb7G154o8vXIG-313" value="+generateReports() : void" style="text;strokeColor=none;fillColor=none;align=left;verticalAlign=top;spacingLeft=4;spacingRight=4;overflow=hidden;rotatable=0;points=[[0,0.5],[1,0.5]];portConstraint=eastwest;" parent="IS7KMr-Yb7G154o8vXIG-304" vertex="1">
          <mxGeometry y="251.11111111111111" width="370" height="30" as="geometry" />
        </mxCell>
        <mxCell id="IS7KMr-Yb7G154o8vXIG-314" value="ReviewFormComponent" style="swimlane;fontStyle=1;align=center;verticalAlign=top;childLayout=stackLayout;horizontal=1;startSize=40;horizontalStack=0;resizeParent=1;resizeParentMax=0;resizeLast=0;collapsible=0;marginBottom=0;" parent="1" vertex="1">
          <mxGeometry x="50" y="4080" width="300" height="170" as="geometry" />
        </mxCell>
        <mxCell id="IS7KMr-Yb7G154o8vXIG-315" value="+reservation: Reservation" style="text;strokeColor=none;fillColor=none;align=left;verticalAlign=top;spacingLeft=4;spacingRight=4;overflow=hidden;rotatable=0;points=[[0,0.5],[1,0.5]];portConstraint=eastwest;" parent="IS7KMr-Yb7G154o8vXIG-314" vertex="1">
          <mxGeometry y="40" width="300" height="40" as="geometry" />
        </mxCell>
        <mxCell id="IS7KMr-Yb7G154o8vXIG-316" style="line;strokeWidth=1;fillColor=none;align=left;verticalAlign=middle;spacingTop=-1;spacingLeft=3;spacingRight=3;rotatable=0;labelPosition=right;points=[];portConstraint=eastwest;strokeColor=inherit;" parent="IS7KMr-Yb7G154o8vXIG-314" vertex="1">
          <mxGeometry y="80" width="300" height="10" as="geometry" />
        </mxCell>
        <mxCell id="IS7KMr-Yb7G154o8vXIG-317" value="+submitReview() : void" style="text;strokeColor=none;fillColor=none;align=left;verticalAlign=top;spacingLeft=4;spacingRight=4;overflow=hidden;rotatable=0;points=[[0,0.5],[1,0.5]];portConstraint=eastwest;" parent="IS7KMr-Yb7G154o8vXIG-314" vertex="1">
          <mxGeometry y="90" width="300" height="40" as="geometry" />
        </mxCell>
        <mxCell id="IS7KMr-Yb7G154o8vXIG-318" value="+uploadImages() : void" style="text;strokeColor=none;fillColor=none;align=left;verticalAlign=top;spacingLeft=4;spacingRight=4;overflow=hidden;rotatable=0;points=[[0,0.5],[1,0.5]];portConstraint=eastwest;" parent="IS7KMr-Yb7G154o8vXIG-314" vertex="1">
          <mxGeometry y="130" width="300" height="40" as="geometry" />
        </mxCell>
        <mxCell id="IS7KMr-Yb7G154o8vXIG-319" value="" style="curved=1;startArrow=block;startSize=16;startFill=0;endArrow=none;rounded=0;noEdgeStyle=1;edgeStyle=orthogonalEdgeStyle;" parent="1" source="IS7KMr-Yb7G154o8vXIG-1" target="IS7KMr-Yb7G154o8vXIG-49" edge="1">
          <mxGeometry relative="1" as="geometry">
            <Array as="points">
              <mxPoint x="200" y="880" />
              <mxPoint x="370" y="610" />
            </Array>
          </mxGeometry>
        </mxCell>
        <mxCell id="IS7KMr-Yb7G154o8vXIG-320" value="" style="curved=1;startArrow=block;startSize=16;startFill=0;endArrow=none;rounded=0;noEdgeStyle=1;edgeStyle=orthogonalEdgeStyle;" parent="1" source="IS7KMr-Yb7G154o8vXIG-49" target="IS7KMr-Yb7G154o8vXIG-59" edge="1">
          <mxGeometry relative="1" as="geometry">
            <Array as="points">
              <mxPoint x="700" y="520" />
              <mxPoint x="870" y="220" />
            </Array>
          </mxGeometry>
        </mxCell>
        <mxCell id="IS7KMr-Yb7G154o8vXIG-321" value="" style="curved=1;startArrow=block;startSize=16;startFill=0;endArrow=none;rounded=0;noEdgeStyle=1;edgeStyle=orthogonalEdgeStyle;" parent="1" source="IS7KMr-Yb7G154o8vXIG-49" target="IS7KMr-Yb7G154o8vXIG-67" edge="1">
          <mxGeometry relative="1" as="geometry">
            <Array as="points">
              <mxPoint x="700" y="610" />
              <mxPoint x="870" y="650" />
            </Array>
          </mxGeometry>
        </mxCell>
        <mxCell id="IS7KMr-Yb7G154o8vXIG-322" value="" style="curved=1;startArrow=block;startSize=16;startFill=0;endArrow=none;rounded=0;noEdgeStyle=1;edgeStyle=orthogonalEdgeStyle;" parent="1" source="IS7KMr-Yb7G154o8vXIG-1" target="IS7KMr-Yb7G154o8vXIG-74" edge="1">
          <mxGeometry relative="1" as="geometry">
            <Array as="points">
              <mxPoint x="200" y="860" />
              <mxPoint x="290" y="370" />
              <mxPoint x="780" y="370" />
              <mxPoint x="780" y="440" />
              <mxPoint x="1480" y="440" />
              <mxPoint x="1570" y="490" />
            </Array>
          </mxGeometry>
        </mxCell>
        <mxCell id="IS7KMr-Yb7G154o8vXIG-323" value="" style="curved=1;startArrow=block;startSize=16;startFill=0;endArrow=none;rounded=0;noEdgeStyle=1;edgeStyle=orthogonalEdgeStyle;" parent="1" source="IS7KMr-Yb7G154o8vXIG-1" target="IS7KMr-Yb7G154o8vXIG-87" edge="1">
          <mxGeometry relative="1" as="geometry">
            <Array as="points">
              <mxPoint x="200" y="930" />
              <mxPoint x="290" y="1320" />
              <mxPoint x="780" y="1320" />
              <mxPoint x="780" y="1320" />
              <mxPoint x="1480" y="1320" />
              <mxPoint x="1480" y="1320" />
              <mxPoint x="2160" y="1320" />
              <mxPoint x="2240" y="950" />
            </Array>
          </mxGeometry>
        </mxCell>
        <mxCell id="IS7KMr-Yb7G154o8vXIG-324" value="" style="curved=1;startArrow=block;startSize=16;startFill=0;endArrow=none;rounded=0;noEdgeStyle=1;edgeStyle=orthogonalEdgeStyle;" parent="1" source="IS7KMr-Yb7G154o8vXIG-1" target="IS7KMr-Yb7G154o8vXIG-101" edge="1">
          <mxGeometry relative="1" as="geometry">
            <Array as="points">
              <mxPoint x="200" y="950" />
              <mxPoint x="290" y="1420" />
              <mxPoint x="780" y="1420" />
              <mxPoint x="780" y="1420" />
              <mxPoint x="1480" y="1420" />
              <mxPoint x="1480" y="1420" />
              <mxPoint x="2160" y="1420" />
              <mxPoint x="2160" y="1420" />
              <mxPoint x="2820" y="1420" />
              <mxPoint x="2910" y="990" />
            </Array>
          </mxGeometry>
        </mxCell>
        <mxCell id="IS7KMr-Yb7G154o8vXIG-325" value="" style="curved=1;startArrow=block;startSize=16;startFill=0;endArrow=none;rounded=0;noEdgeStyle=1;edgeStyle=orthogonalEdgeStyle;" parent="1" source="IS7KMr-Yb7G154o8vXIG-1" target="IS7KMr-Yb7G154o8vXIG-115" edge="1">
          <mxGeometry relative="1" as="geometry">
            <Array as="points">
              <mxPoint x="200" y="970" />
              <mxPoint x="290" y="1520" />
              <mxPoint x="780" y="1520" />
              <mxPoint x="780" y="1520" />
              <mxPoint x="1480" y="1520" />
              <mxPoint x="1480" y="1520" />
              <mxPoint x="2160" y="1520" />
              <mxPoint x="2160" y="1520" />
              <mxPoint x="2820" y="1520" />
              <mxPoint x="2820" y="1520" />
              <mxPoint x="3380" y="1520" />
              <mxPoint x="3460" y="1080" />
            </Array>
          </mxGeometry>
        </mxCell>
        <mxCell id="IS7KMr-Yb7G154o8vXIG-326" value="" style="curved=1;startArrow=block;startSize=16;startFill=0;endArrow=none;rounded=0;noEdgeStyle=1;edgeStyle=orthogonalEdgeStyle;" parent="1" source="IS7KMr-Yb7G154o8vXIG-1" target="IS7KMr-Yb7G154o8vXIG-126" edge="1">
          <mxGeometry relative="1" as="geometry">
            <Array as="points">
              <mxPoint x="200" y="840" />
              <mxPoint x="290" />
              <mxPoint x="780" />
              <mxPoint x="780" />
              <mxPoint x="1480" />
              <mxPoint x="1480" />
              <mxPoint x="2160" />
              <mxPoint x="2160" />
              <mxPoint x="2820" />
              <mxPoint x="2820" />
              <mxPoint x="3380" />
              <mxPoint x="3460" y="410" />
            </Array>
          </mxGeometry>
        </mxCell>
        <mxCell id="IS7KMr-Yb7G154o8vXIG-327" value="" style="curved=1;startArrow=block;startSize=16;startFill=0;endArrow=none;rounded=0;noEdgeStyle=1;edgeStyle=orthogonalEdgeStyle;" parent="1" source="IS7KMr-Yb7G154o8vXIG-1" target="IS7KMr-Yb7G154o8vXIG-136" edge="1">
          <mxGeometry relative="1" as="geometry">
            <Array as="points">
              <mxPoint x="200" y="890" />
              <mxPoint x="290" y="850" />
              <mxPoint x="780" y="850" />
              <mxPoint x="870" y="1050" />
            </Array>
          </mxGeometry>
        </mxCell>
        <mxCell id="IS7KMr-Yb7G154o8vXIG-328" value="" style="curved=1;startArrow=block;startSize=16;startFill=0;endArrow=none;rounded=0;noEdgeStyle=1;edgeStyle=orthogonalEdgeStyle;" parent="1" source="IS7KMr-Yb7G154o8vXIG-1" target="IS7KMr-Yb7G154o8vXIG-145" edge="1">
          <mxGeometry relative="1" as="geometry">
            <Array as="points">
              <mxPoint x="200" y="910" />
              <mxPoint x="290" y="1220" />
              <mxPoint x="780" y="1220" />
              <mxPoint x="780" y="1220" />
              <mxPoint x="1480" y="1220" />
              <mxPoint x="1570" y="1050" />
            </Array>
          </mxGeometry>
        </mxCell>
        <mxCell id="IS7KMr-Yb7G154o8vXIG-329" value="contains" style="curved=1;startArrow=none;endArrow=open;endSize=12;exitX=0.27;exitY=1;rounded=0;noEdgeStyle=1;" parent="1" source="IS7KMr-Yb7G154o8vXIG-74" target="IS7KMr-Yb7G154o8vXIG-87" edge="1">
          <mxGeometry relative="1" as="geometry">
            <Array as="points">
              <mxPoint x="2030" y="830" />
              <mxPoint x="2240" y="770" />
            </Array>
          </mxGeometry>
        </mxCell>
        <mxCell id="IS7KMr-Yb7G154o8vXIG-330" value="1" style="edgeLabel;resizable=0;labelBackgroundColor=none;fontSize=12;align=right;verticalAlign=top;" parent="IS7KMr-Yb7G154o8vXIG-329" vertex="1">
          <mxGeometry relative="1" as="geometry" />
        </mxCell>
        <mxCell id="IS7KMr-Yb7G154o8vXIG-331" value="*" style="edgeLabel;resizable=0;labelBackgroundColor=none;fontSize=12;align=left;verticalAlign=bottom;" parent="IS7KMr-Yb7G154o8vXIG-329" vertex="1">
          <mxGeometry relative="1" as="geometry" />
        </mxCell>
        <mxCell id="IS7KMr-Yb7G154o8vXIG-332" value="booked for" style="curved=1;startArrow=none;endArrow=open;endSize=12;rounded=0;noEdgeStyle=1;" parent="1" source="IS7KMr-Yb7G154o8vXIG-87" target="IS7KMr-Yb7G154o8vXIG-101" edge="1">
          <mxGeometry relative="1" as="geometry">
            <Array as="points">
              <mxPoint x="2730" y="860" />
              <mxPoint x="2910" y="860" />
            </Array>
          </mxGeometry>
        </mxCell>
        <mxCell id="IS7KMr-Yb7G154o8vXIG-333" value="1" style="edgeLabel;resizable=0;labelBackgroundColor=none;fontSize=12;align=right;verticalAlign=top;" parent="IS7KMr-Yb7G154o8vXIG-332" vertex="1">
          <mxGeometry relative="1" as="geometry" />
        </mxCell>
        <mxCell id="IS7KMr-Yb7G154o8vXIG-334" value="*" style="edgeLabel;resizable=0;labelBackgroundColor=none;fontSize=12;align=left;verticalAlign=bottom;" parent="IS7KMr-Yb7G154o8vXIG-332" vertex="1">
          <mxGeometry relative="1" as="geometry" />
        </mxCell>
        <mxCell id="IS7KMr-Yb7G154o8vXIG-335" value="makes" style="curved=1;startArrow=none;endArrow=open;endSize=12;entryX=0;entryY=0.31;rounded=0;noEdgeStyle=1;" parent="1" source="IS7KMr-Yb7G154o8vXIG-59" target="IS7KMr-Yb7G154o8vXIG-101" edge="1">
          <mxGeometry relative="1" as="geometry">
            <Array as="points">
              <mxPoint x="1390" y="280" />
              <mxPoint x="1480" y="300" />
              <mxPoint x="2160" y="300" />
              <mxPoint x="2160" y="300" />
              <mxPoint x="2820" y="300" />
              <mxPoint x="2910" y="740" />
            </Array>
          </mxGeometry>
        </mxCell>
        <mxCell id="IS7KMr-Yb7G154o8vXIG-336" value="1" style="edgeLabel;resizable=0;labelBackgroundColor=none;fontSize=12;align=left;verticalAlign=top;" parent="IS7KMr-Yb7G154o8vXIG-335" vertex="1">
          <mxGeometry relative="1" as="geometry" />
        </mxCell>
        <mxCell id="IS7KMr-Yb7G154o8vXIG-337" value="*" style="edgeLabel;resizable=0;labelBackgroundColor=none;fontSize=12;align=right;verticalAlign=bottom;" parent="IS7KMr-Yb7G154o8vXIG-335" vertex="1">
          <mxGeometry relative="1" as="geometry" />
        </mxCell>
        <mxCell id="IS7KMr-Yb7G154o8vXIG-338" value="has" style="curved=1;startArrow=none;endArrow=open;endSize=12;exitX=1;exitY=0.5;entryX=0;entryY=0.09;rounded=0;noEdgeStyle=1;exitDx=0;exitDy=0;" parent="1" source="IS7KMr-Yb7G154o8vXIG-113" target="IS7KMr-Yb7G154o8vXIG-115" edge="1">
          <mxGeometry relative="1" as="geometry">
            <Array as="points">
              <mxPoint x="3290" y="950" />
              <mxPoint x="3460" y="930" />
            </Array>
          </mxGeometry>
        </mxCell>
        <mxCell id="IS7KMr-Yb7G154o8vXIG-339" value="1" style="edgeLabel;resizable=0;labelBackgroundColor=none;fontSize=12;align=right;verticalAlign=top;" parent="IS7KMr-Yb7G154o8vXIG-338" vertex="1">
          <mxGeometry relative="1" as="geometry" />
        </mxCell>
        <mxCell id="IS7KMr-Yb7G154o8vXIG-340" value="0..1" style="edgeLabel;resizable=0;labelBackgroundColor=none;fontSize=12;align=left;verticalAlign=bottom;" parent="IS7KMr-Yb7G154o8vXIG-338" vertex="1">
          <mxGeometry relative="1" as="geometry" />
        </mxCell>
        <mxCell id="IS7KMr-Yb7G154o8vXIG-341" value="has" style="curved=1;startArrow=none;endArrow=open;endSize=12;rounded=0;noEdgeStyle=1;" parent="1" source="IS7KMr-Yb7G154o8vXIG-74" target="IS7KMr-Yb7G154o8vXIG-126" edge="1">
          <mxGeometry relative="1" as="geometry">
            <Array as="points">
              <mxPoint x="2070" y="490" />
              <mxPoint x="2160" y="570" />
              <mxPoint x="2820" y="570" />
              <mxPoint x="2820" y="570" />
              <mxPoint x="3380" y="570" />
              <mxPoint x="3460" y="550" />
            </Array>
          </mxGeometry>
        </mxCell>
        <mxCell id="IS7KMr-Yb7G154o8vXIG-342" value="1" style="edgeLabel;resizable=0;labelBackgroundColor=none;fontSize=12;align=right;verticalAlign=top;" parent="IS7KMr-Yb7G154o8vXIG-341" vertex="1">
          <mxGeometry relative="1" as="geometry" />
        </mxCell>
        <mxCell id="IS7KMr-Yb7G154o8vXIG-343" value="*" style="edgeLabel;resizable=0;labelBackgroundColor=none;fontSize=12;align=left;verticalAlign=bottom;" parent="IS7KMr-Yb7G154o8vXIG-341" vertex="1">
          <mxGeometry relative="1" as="geometry" />
        </mxCell>
        <mxCell id="IS7KMr-Yb7G154o8vXIG-344" value="writes" style="curved=1;startArrow=none;endArrow=open;endSize=12;entryX=0;entryY=0.37;rounded=0;noEdgeStyle=1;" parent="1" source="IS7KMr-Yb7G154o8vXIG-59" target="IS7KMr-Yb7G154o8vXIG-126" edge="1">
          <mxGeometry relative="1" as="geometry">
            <Array as="points">
              <mxPoint x="1390" y="160" />
              <mxPoint x="1480" y="200" />
              <mxPoint x="2160" y="200" />
              <mxPoint x="2160" y="200" />
              <mxPoint x="2820" y="200" />
              <mxPoint x="2820" y="200" />
              <mxPoint x="3380" y="200" />
              <mxPoint x="3460" y="480" />
            </Array>
          </mxGeometry>
        </mxCell>
        <mxCell id="IS7KMr-Yb7G154o8vXIG-345" value="1" style="edgeLabel;resizable=0;labelBackgroundColor=none;fontSize=12;align=left;verticalAlign=top;" parent="IS7KMr-Yb7G154o8vXIG-344" vertex="1">
          <mxGeometry relative="1" as="geometry" />
        </mxCell>
        <mxCell id="IS7KMr-Yb7G154o8vXIG-346" value="*" style="edgeLabel;resizable=0;labelBackgroundColor=none;fontSize=12;align=right;verticalAlign=bottom;" parent="IS7KMr-Yb7G154o8vXIG-344" vertex="1">
          <mxGeometry relative="1" as="geometry" />
        </mxCell>
        <mxCell id="IS7KMr-Yb7G154o8vXIG-347" value="may have" style="curved=1;startArrow=none;endArrow=open;endSize=12;entryX=0;entryY=0.21;rounded=0;noEdgeStyle=1;" parent="1" source="IS7KMr-Yb7G154o8vXIG-101" target="IS7KMr-Yb7G154o8vXIG-126" edge="1">
          <mxGeometry relative="1" as="geometry">
            <Array as="points">
              <mxPoint x="3290" y="770" />
              <mxPoint x="3460" y="620" />
            </Array>
          </mxGeometry>
        </mxCell>
        <mxCell id="IS7KMr-Yb7G154o8vXIG-348" value="1" style="edgeLabel;resizable=0;labelBackgroundColor=none;fontSize=12;align=left;verticalAlign=top;" parent="IS7KMr-Yb7G154o8vXIG-347" vertex="1">
          <mxGeometry relative="1" as="geometry" />
        </mxCell>
        <mxCell id="IS7KMr-Yb7G154o8vXIG-349" value="0..1" style="edgeLabel;resizable=0;labelBackgroundColor=none;fontSize=12;align=right;verticalAlign=bottom;" parent="IS7KMr-Yb7G154o8vXIG-347" vertex="1">
          <mxGeometry relative="1" as="geometry" />
        </mxCell>
        <mxCell id="IS7KMr-Yb7G154o8vXIG-350" value="receives" style="curved=1;startArrow=none;endArrow=open;endSize=12;rounded=0;noEdgeStyle=1;edgeStyle=orthogonalEdgeStyle;" parent="1" source="IS7KMr-Yb7G154o8vXIG-49" target="IS7KMr-Yb7G154o8vXIG-136" edge="1">
          <mxGeometry relative="1" as="geometry">
            <Array as="points">
              <mxPoint x="700" y="700" />
              <mxPoint x="870" y="930" />
            </Array>
          </mxGeometry>
        </mxCell>
        <mxCell id="IS7KMr-Yb7G154o8vXIG-351" value="1" style="edgeLabel;resizable=0;labelBackgroundColor=none;fontSize=12;align=left;verticalAlign=top;" parent="IS7KMr-Yb7G154o8vXIG-350" vertex="1">
          <mxGeometry relative="1" as="geometry" />
        </mxCell>
        <mxCell id="IS7KMr-Yb7G154o8vXIG-352" value="*" style="edgeLabel;resizable=0;labelBackgroundColor=none;fontSize=12;align=right;verticalAlign=bottom;" parent="IS7KMr-Yb7G154o8vXIG-350" vertex="1">
          <mxGeometry relative="1" as="geometry" />
        </mxCell>
        <mxCell id="IS7KMr-Yb7G154o8vXIG-353" value="manages" style="curved=1;startArrow=none;endArrow=open;endSize=12;entryX=0;entryY=0.11;rounded=0;noEdgeStyle=1;" parent="1" source="IS7KMr-Yb7G154o8vXIG-67" target="IS7KMr-Yb7G154o8vXIG-74" edge="1">
          <mxGeometry relative="1" as="geometry">
            <Array as="points">
              <mxPoint x="1390" y="600" />
              <mxPoint x="1490" y="585" />
            </Array>
          </mxGeometry>
        </mxCell>
        <mxCell id="IS7KMr-Yb7G154o8vXIG-354" value="1" style="edgeLabel;resizable=0;labelBackgroundColor=none;fontSize=12;align=right;verticalAlign=top;" parent="IS7KMr-Yb7G154o8vXIG-353" vertex="1">
          <mxGeometry relative="1" as="geometry" />
        </mxCell>
        <mxCell id="IS7KMr-Yb7G154o8vXIG-355" value="*" style="edgeLabel;resizable=0;labelBackgroundColor=none;fontSize=12;align=left;verticalAlign=bottom;" parent="IS7KMr-Yb7G154o8vXIG-353" vertex="1">
          <mxGeometry relative="1" as="geometry" />
        </mxCell>
        <mxCell id="IS7KMr-Yb7G154o8vXIG-356" value="generates for" style="curved=1;startArrow=none;endArrow=open;endSize=12;entryX=0;entryY=0.32;rounded=0;noEdgeStyle=1;" parent="1" source="IS7KMr-Yb7G154o8vXIG-67" target="IS7KMr-Yb7G154o8vXIG-145" edge="1">
          <mxGeometry relative="1" as="geometry">
            <Array as="points">
              <mxPoint x="1390" y="700" />
              <mxPoint x="1430" y="830" />
              <mxPoint x="1570" y="930" />
            </Array>
          </mxGeometry>
        </mxCell>
        <mxCell id="IS7KMr-Yb7G154o8vXIG-357" value="1" style="edgeLabel;resizable=0;labelBackgroundColor=none;fontSize=12;align=left;verticalAlign=top;" parent="IS7KMr-Yb7G154o8vXIG-356" vertex="1">
          <mxGeometry relative="1" as="geometry" />
        </mxCell>
        <mxCell id="IS7KMr-Yb7G154o8vXIG-358" value="*" style="edgeLabel;resizable=0;labelBackgroundColor=none;fontSize=12;align=right;verticalAlign=bottom;" parent="IS7KMr-Yb7G154o8vXIG-356" vertex="1">
          <mxGeometry relative="1" as="geometry" />
        </mxCell>
        <mxCell id="IS7KMr-Yb7G154o8vXIG-359" value="uses" style="curved=1;startArrow=none;endArrow=open;endSize=12;rounded=0;noEdgeStyle=1;edgeStyle=orthogonalEdgeStyle;" parent="1" source="IS7KMr-Yb7G154o8vXIG-226" target="IS7KMr-Yb7G154o8vXIG-167" edge="1">
          <mxGeometry relative="1" as="geometry">
            <Array as="points">
              <mxPoint x="400" y="2620" />
              <mxPoint x="580" y="3350" />
            </Array>
          </mxGeometry>
        </mxCell>
        <mxCell id="IS7KMr-Yb7G154o8vXIG-360" value="uses" style="curved=1;startArrow=none;endArrow=open;endSize=12;rounded=0;noEdgeStyle=1;edgeStyle=orthogonalEdgeStyle;" parent="1" source="IS7KMr-Yb7G154o8vXIG-233" target="IS7KMr-Yb7G154o8vXIG-175" edge="1">
          <mxGeometry relative="1" as="geometry">
            <Array as="points">
              <mxPoint x="2800" y="2630" />
              <mxPoint x="3170" y="2640" />
            </Array>
          </mxGeometry>
        </mxCell>
        <mxCell id="IS7KMr-Yb7G154o8vXIG-361" value="uses" style="curved=1;startArrow=none;endArrow=open;endSize=12;rounded=0;noEdgeStyle=1;edgeStyle=orthogonalEdgeStyle;" parent="1" source="IS7KMr-Yb7G154o8vXIG-240" target="IS7KMr-Yb7G154o8vXIG-183" edge="1">
          <mxGeometry relative="1" as="geometry">
            <Array as="points">
              <mxPoint x="400" y="4440" />
              <mxPoint x="580" y="4190" />
            </Array>
          </mxGeometry>
        </mxCell>
        <mxCell id="IS7KMr-Yb7G154o8vXIG-362" value="uses" style="curved=1;startArrow=none;endArrow=open;endSize=12;rounded=0;noEdgeStyle=1;edgeStyle=orthogonalEdgeStyle;" parent="1" source="IS7KMr-Yb7G154o8vXIG-246" target="IS7KMr-Yb7G154o8vXIG-191" edge="1">
          <mxGeometry relative="1" as="geometry">
            <Array as="points">
              <mxPoint x="1420" y="1920" />
              <mxPoint x="1610" y="1860" />
            </Array>
          </mxGeometry>
        </mxCell>
        <mxCell id="IS7KMr-Yb7G154o8vXIG-363" value="uses" style="curved=1;startArrow=none;endArrow=open;endSize=12;rounded=0;noEdgeStyle=1;orthogonal=1;edgeStyle=orthogonalEdgeStyle;" parent="1" source="IS7KMr-Yb7G154o8vXIG-216" target="IS7KMr-Yb7G154o8vXIG-154" edge="1">
          <mxGeometry relative="1" as="geometry">
            <Array as="points">
              <mxPoint x="330" y="1770" />
              <mxPoint x="510" y="1770" />
            </Array>
          </mxGeometry>
        </mxCell>
        <mxCell id="IS7KMr-Yb7G154o8vXIG-364" value="uses" style="curved=1;startArrow=none;endArrow=open;endSize=12;rounded=0;noEdgeStyle=1;orthogonal=1;edgeStyle=orthogonalEdgeStyle;" parent="1" source="IS7KMr-Yb7G154o8vXIG-222" target="IS7KMr-Yb7G154o8vXIG-161" edge="1">
          <mxGeometry relative="1" as="geometry">
            <Array as="points">
              <mxPoint x="280" y="2120" />
              <mxPoint x="450" y="2120" />
            </Array>
          </mxGeometry>
        </mxCell>
        <mxCell id="IS7KMr-Yb7G154o8vXIG-365" value="uses" style="curved=1;startArrow=none;endArrow=open;endSize=12;rounded=0;noEdgeStyle=1;edgeStyle=orthogonalEdgeStyle;" parent="1" source="IS7KMr-Yb7G154o8vXIG-251" target="IS7KMr-Yb7G154o8vXIG-197" edge="1">
          <mxGeometry relative="1" as="geometry">
            <Array as="points">
              <mxPoint x="400" y="3570" />
              <mxPoint x="580" y="3750" />
            </Array>
          </mxGeometry>
        </mxCell>
        <mxCell id="IS7KMr-Yb7G154o8vXIG-366" value="uses" style="curved=1;startArrow=none;endArrow=open;endSize=12;rounded=0;noEdgeStyle=1;edgeStyle=orthogonalEdgeStyle;" parent="1" source="IS7KMr-Yb7G154o8vXIG-257" target="IS7KMr-Yb7G154o8vXIG-204" edge="1">
          <mxGeometry relative="1" as="geometry">
            <Array as="points">
              <mxPoint x="400" y="2350" />
              <mxPoint x="580" y="3060" />
            </Array>
          </mxGeometry>
        </mxCell>
        <mxCell id="IS7KMr-Yb7G154o8vXIG-367" value="uses" style="curved=1;startArrow=none;endArrow=open;endSize=12;rounded=0;noEdgeStyle=1;edgeStyle=orthogonalEdgeStyle;" parent="1" source="IS7KMr-Yb7G154o8vXIG-261" target="IS7KMr-Yb7G154o8vXIG-211" edge="1">
          <mxGeometry relative="1" as="geometry">
            <Array as="points">
              <mxPoint x="2470" y="4120" />
            </Array>
          </mxGeometry>
        </mxCell>
        <mxCell id="IS7KMr-Yb7G154o8vXIG-368" value="uses" style="curved=1;dashed=1;startArrow=none;endArrow=open;endSize=12;entryX=0;entryY=0.24;rounded=0;noEdgeStyle=1;" parent="1" source="IS7KMr-Yb7G154o8vXIG-265" target="IS7KMr-Yb7G154o8vXIG-167" edge="1">
          <mxGeometry relative="1" as="geometry">
            <Array as="points">
              <mxPoint x="400" y="2930" />
              <mxPoint x="580" y="3400" />
            </Array>
          </mxGeometry>
        </mxCell>
        <mxCell id="IS7KMr-Yb7G154o8vXIG-369" value="uses" style="curved=1;dashed=1;startArrow=none;endArrow=open;endSize=12;rounded=0;noEdgeStyle=1;" parent="1" source="IS7KMr-Yb7G154o8vXIG-272" target="IS7KMr-Yb7G154o8vXIG-167" edge="1">
          <mxGeometry relative="1" as="geometry">
            <Array as="points">
              <mxPoint x="400" y="3200" />
              <mxPoint x="580" y="3460" />
            </Array>
          </mxGeometry>
        </mxCell>
        <mxCell id="IS7KMr-Yb7G154o8vXIG-370" value="uses" style="curved=1;dashed=1;startArrow=none;endArrow=open;endSize=12;exitX=0.83;exitY=1;entryX=0;entryY=0.34;rounded=0;noEdgeStyle=1;" parent="1" source="IS7KMr-Yb7G154o8vXIG-272" target="IS7KMr-Yb7G154o8vXIG-197" edge="1">
          <mxGeometry relative="1" as="geometry">
            <Array as="points">
              <mxPoint x="400" y="3320" />
              <mxPoint x="580" y="3680" />
            </Array>
          </mxGeometry>
        </mxCell>
        <mxCell id="IS7KMr-Yb7G154o8vXIG-371" value="uses" style="curved=1;dashed=1;startArrow=none;endArrow=open;endSize=12;exitX=0.5;exitY=1;rounded=0;noEdgeStyle=1;" parent="1" source="IS7KMr-Yb7G154o8vXIG-280" target="IS7KMr-Yb7G154o8vXIG-175" edge="1">
          <mxGeometry x="-0.0203" y="15" relative="1" as="geometry">
            <Array as="points">
              <mxPoint x="3400" y="2980" />
              <mxPoint x="3550" y="2850" />
            </Array>
            <mxPoint as="offset" />
          </mxGeometry>
        </mxCell>
        <mxCell id="IS7KMr-Yb7G154o8vXIG-372" value="uses" style="curved=1;dashed=1;startArrow=none;endArrow=open;endSize=12;rounded=0;noEdgeStyle=1;" parent="1" source="IS7KMr-Yb7G154o8vXIG-285" target="IS7KMr-Yb7G154o8vXIG-183" edge="1">
          <mxGeometry relative="1" as="geometry">
            <Array as="points">
              <mxPoint x="1070" y="4380" />
            </Array>
          </mxGeometry>
        </mxCell>
        <mxCell id="IS7KMr-Yb7G154o8vXIG-373" value="uses" style="curved=1;dashed=1;startArrow=none;endArrow=open;endSize=12;exitX=0.5;exitY=1;entryX=1;entryY=0.2;rounded=0;noEdgeStyle=1;" parent="1" source="IS7KMr-Yb7G154o8vXIG-292" target="IS7KMr-Yb7G154o8vXIG-191" edge="1">
          <mxGeometry relative="1" as="geometry">
            <Array as="points">
              <mxPoint x="1450" y="2210" />
              <mxPoint x="2430" y="2210" />
            </Array>
          </mxGeometry>
        </mxCell>
        <mxCell id="IS7KMr-Yb7G154o8vXIG-374" value="uses" style="curved=1;dashed=1;startArrow=none;endArrow=open;endSize=12;rounded=0;noEdgeStyle=1;" parent="1" source="IS7KMr-Yb7G154o8vXIG-297" target="IS7KMr-Yb7G154o8vXIG-183" edge="1">
          <mxGeometry x="-0.0781" y="4" relative="1" as="geometry">
            <Array as="points">
              <mxPoint x="400" y="3920" />
              <mxPoint x="580" y="4140" />
            </Array>
            <mxPoint as="offset" />
          </mxGeometry>
        </mxCell>
        <mxCell id="IS7KMr-Yb7G154o8vXIG-375" value="uses" style="curved=1;dashed=1;startArrow=none;endArrow=open;endSize=12;rounded=0;noEdgeStyle=1;" parent="1" source="IS7KMr-Yb7G154o8vXIG-297" target="IS7KMr-Yb7G154o8vXIG-204" edge="1">
          <mxGeometry x="0.1733" y="-1" relative="1" as="geometry">
            <Array as="points">
              <mxPoint x="400" y="3820" />
              <mxPoint x="450" y="3460" />
              <mxPoint x="580" y="3160" />
            </Array>
            <mxPoint y="1" as="offset" />
          </mxGeometry>
        </mxCell>
        <mxCell id="IS7KMr-Yb7G154o8vXIG-376" value="uses" style="curved=1;dashed=1;startArrow=none;endArrow=open;endSize=12;rounded=0;noEdgeStyle=1;" parent="1" source="IS7KMr-Yb7G154o8vXIG-304" target="IS7KMr-Yb7G154o8vXIG-167" edge="1">
          <mxGeometry relative="1" as="geometry">
            <Array as="points">
              <mxPoint x="1630" y="3410" />
            </Array>
          </mxGeometry>
        </mxCell>
        <mxCell id="IS7KMr-Yb7G154o8vXIG-377" value="uses" style="curved=1;dashed=1;startArrow=none;endArrow=open;endSize=12;rounded=0;noEdgeStyle=1;" parent="1" source="IS7KMr-Yb7G154o8vXIG-304" target="IS7KMr-Yb7G154o8vXIG-183" edge="1">
          <mxGeometry relative="1" as="geometry">
            <Array as="points">
              <mxPoint x="1510" y="4050" />
            </Array>
          </mxGeometry>
        </mxCell>
        <mxCell id="IS7KMr-Yb7G154o8vXIG-378" value="uses" style="curved=1;dashed=1;startArrow=none;endArrow=open;endSize=12;exitX=1;exitY=0.87;rounded=0;noEdgeStyle=1;" parent="1" source="IS7KMr-Yb7G154o8vXIG-304" target="IS7KMr-Yb7G154o8vXIG-211" edge="1">
          <mxGeometry relative="1" as="geometry">
            <Array as="points">
              <mxPoint x="2230" y="3830" />
            </Array>
          </mxGeometry>
        </mxCell>
        <mxCell id="IS7KMr-Yb7G154o8vXIG-379" value="uses" style="curved=1;dashed=1;startArrow=none;endArrow=open;endSize=12;rounded=0;noEdgeStyle=1;" parent="1" source="IS7KMr-Yb7G154o8vXIG-314" target="IS7KMr-Yb7G154o8vXIG-197" edge="1">
          <mxGeometry x="0.1684" y="6" relative="1" as="geometry">
            <Array as="points">
              <mxPoint x="400" y="4160" />
              <mxPoint x="580" y="3820" />
            </Array>
            <mxPoint y="1" as="offset" />
          </mxGeometry>
        </mxCell>
      </root>
    </mxGraphModel>
  </diagram>
</mxfile>
